<svg width="24" height="24" viewBox="0 0 24 24" fill="none" xmlns="http://www.w3.org/2000/svg">
<path fill-rule="evenodd" clip-rule="evenodd" d="M2 12C2 6.486 6.486 2 12 2C17.514 2 22 6.486 22 12C22 17.514 17.514 22 12 22C6.486 22 2 17.514 2 12ZM4 12C4 16.411 7.589 20 12 20C16.411 20 20 16.411 20 12C20 7.589 16.411 4 12 4C7.589 4 4 7.589 4 12ZM9.21968 7.1537C9.95716 6.41622 10.957 6.00132 12 6C13.0429 6.00106 14.0428 6.4159 14.7802 7.15347C15.5176 7.89104 15.9322 8.89106 15.933 9.934C15.933 11.53 14.7569 12.4826 13.9779 13.1136L13.975 13.116C13.9613 13.1271 13.9476 13.1381 13.9339 13.1491C13.7527 13.295 13.5795 13.4345 13.44 13.574C13.032 13.981 13 14.351 12.999 14.367L13 15H11V14.333C11 14.215 11.029 13.156 12.027 12.159C12.2472 11.948 12.4779 11.7481 12.718 11.56C13.453 10.966 13.934 10.532 13.934 9.934C13.934 8.867 13.066 8 12 8C10.934 8 10.066 8.867 10.066 9.934H8.06598C8.0673 8.89104 8.4822 7.89118 9.21968 7.1537ZM13 18V16H11V18H13Z" fill="url(#paint0_linear_212_2033)"/>
<defs>
<linearGradient id="paint0_linear_212_2033" x1="16.6982" y1="44.6206" x2="-14.9938" y2="17.1275" gradientUnits="userSpaceOnUse">
<stop stop-color="#C03583"/>
<stop offset="0.329187" stop-color="#F45F40"/>
<stop offset="0.660009" stop-color="#F45F40"/>
<stop offset="0.945844" stop-color="#FCAF45"/>
</linearGradient>
</defs>
</svg>
