<svg width="25" height="25" viewBox="0 0 25 25" fill="none" xmlns="http://www.w3.org/2000/svg">
<path fill-rule="evenodd" clip-rule="evenodd" d="M2.63929 10.081C3.97429 4.72405 9.39729 1.46405 14.7543 2.79905C20.1093 4.13505 23.3693 9.56005 22.0333 14.916C20.6993 20.273 15.2733 23.532 9.91629 22.197C4.56329 20.861 1.30329 15.436 2.63929 10.081ZM15.3433 12.685C16.0593 12.519 16.6003 12.048 16.7453 11.074C16.9433 9.74405 15.9313 9.02805 14.5473 8.54905L14.9963 6.74705L13.8993 6.47405L13.4613 8.22905C13.1733 8.15705 12.8763 8.08905 12.5823 8.02205L13.0223 6.25605L11.9253 5.98305L11.4763 7.78505C11.2373 7.73105 11.0033 7.67705 10.7763 7.62005L10.7773 7.61505L9.26329 7.23705L8.97229 8.40905C8.97229 8.40905 9.78729 8.59605 9.76929 8.60705C10.2143 8.71805 10.2933 9.01205 10.2803 9.24605L9.76829 11.299C9.80711 11.3087 9.8452 11.3211 9.88229 11.336L9.76729 11.307L9.04829 14.182C8.99429 14.318 8.85729 14.52 8.54629 14.443C8.55729 14.459 7.74929 14.244 7.74929 14.244L7.20329 15.5L8.63229 15.855C8.79732 15.8961 8.9604 15.9388 9.12203 15.9811C9.21995 16.0067 9.31733 16.0321 9.41429 16.057L8.96029 17.88L10.0553 18.155L10.5043 16.351C10.7952 16.43 11.0869 16.506 11.3793 16.579L10.9323 18.373L12.0283 18.646L12.4823 16.826C14.3543 17.18 15.7603 17.037 16.3523 15.346C16.8283 13.983 16.3283 13.197 15.3433 12.685ZM11.7393 11.5088L12.2863 9.31885C12.3495 9.3347 12.4271 9.35195 12.5152 9.37152C13.2882 9.54326 14.8664 9.8939 14.5773 11.0528C14.2942 12.1891 12.6668 11.7552 11.9201 11.5561C11.8519 11.538 11.7911 11.5217 11.7393 11.5088ZM10.8613 15.0298L11.4643 12.6148C11.5386 12.6333 11.6293 12.6536 11.7319 12.6766C12.6571 12.8837 14.5568 13.3089 14.2373 14.5888C13.926 15.8395 11.9664 15.3212 11.0728 15.0848C10.9932 15.0638 10.9221 15.045 10.8613 15.0298Z" fill="url(#paint0_linear_191_12292)"/>
<defs>
<linearGradient id="paint0_linear_191_12292" x1="17.0328" y1="45.1124" x2="-14.6524" y2="17.6297" gradientUnits="userSpaceOnUse">
<stop stop-color="#C03583"/>
<stop offset="0.329187" stop-color="#F45F40"/>
<stop offset="0.660009" stop-color="#F45F40"/>
<stop offset="0.945844" stop-color="#FCAF45"/>
</linearGradient>
</defs>
</svg>
