<svg width="25" height="25" viewBox="0 0 25 25" fill="none" xmlns="http://www.w3.org/2000/svg">
<path d="M6.08453 4.36667C7.39056 3.36791 9.01548 2.71331 10.5999 2.54768C12.9641 2.30054 15.3964 3.02282 17.2119 4.5111C17.6438 4.86512 18.3923 5.64596 18.7035 6.0671C20.7308 8.81086 21.0497 12.3759 19.5353 15.3653C19.3656 15.7002 19.2062 15.9742 19.181 15.974C19.1558 15.9739 19.0994 15.8014 19.0557 15.5906C18.7656 14.1911 18.0576 13.2292 16.8914 12.65C16.5237 12.4673 16.2019 12.3549 15.7501 12.2513C15.06 12.0929 15.471 11.994 16.6679 12.0303L17.4143 12.0529L17.4456 11.8447C17.4916 11.5374 17.4297 10.6505 17.3305 10.1961C17.0729 9.01724 16.5771 8.11015 15.7242 7.25723C14.6344 6.16748 13.3475 5.59994 11.8085 5.53042C8.88287 5.39827 6.32796 7.41856 5.75625 10.3161C5.65908 10.8085 5.64818 11.8981 5.73546 12.3864C5.88039 13.1968 6.27136 14.1295 6.75286 14.8133C7.2574 15.5299 8.0588 16.2191 8.85494 16.6211C9.66151 17.0282 10.3926 17.2215 11.3175 17.272L11.8339 17.3002L11.7983 17.0298C11.7462 16.634 11.7538 15.4358 11.8085 15.4096C11.8337 15.3975 11.9406 15.5211 12.046 15.6843C13.0558 17.2473 14.0382 18.0545 15.5176 18.537C15.7191 18.6028 16.2652 18.7485 16.7311 18.8608C17.1971 18.9731 17.7637 19.1301 17.9904 19.2096C19.3565 19.6888 20.4805 20.4624 21.5515 21.6607C22.0128 22.1767 22.0948 22.32 21.9967 22.4383C21.8947 22.5612 21.7679 22.5106 21.3877 22.1954C20.0278 21.0681 18.6897 20.4041 17.2524 20.1433C16.68 20.0395 15.2228 20.0394 13.9607 20.143C11.9815 20.3056 11.7412 20.3183 11.1839 20.2895C10.0991 20.2337 9.10958 20.0156 8.15707 19.6225C5.10271 18.3621 3.00819 15.5473 2.67524 12.2556C2.44216 9.95167 3.18454 7.5242 4.6659 5.74656C5.0109 5.33251 5.70734 4.65511 6.08453 4.36667Z" fill="#F35F42"/>
<path d="M18.0833 16.3103C17.7427 15.9549 17.5649 15.4262 17.711 15.2033C17.8213 15.0349 18.0547 15.0449 18.2356 15.2258C18.412 15.4022 18.5628 15.8053 18.5628 16.1002C18.5628 16.554 18.3895 16.6299 18.0833 16.3103Z" fill="#F35F42"/>
<path d="M15.5405 17.1391C15.5405 16.9132 15.6616 16.6935 15.825 16.6224C16.0471 16.5259 16.2268 16.5392 16.4931 16.6719C16.9093 16.8794 17.1854 17.2989 17.1233 17.6298C17.0916 17.7986 16.8877 18.0007 16.702 18.0473C16.4945 18.0994 16.1781 18.0336 15.9818 17.8976C15.7714 17.7518 15.5405 17.355 15.5405 17.1391Z" fill="#F35F42"/>
</svg>
