<svg width="25" height="25" viewBox="0 0 25 25" fill="none" xmlns="http://www.w3.org/2000/svg">
<rect x="2.33325" y="2.5" width="20" height="20" rx="10" fill="#262871"/>
<path d="M12.1883 17.65C11.2383 17.65 10.4233 17.495 9.74325 17.185C9.07325 16.875 8.54825 16.42 8.16825 15.82C7.79825 15.22 7.59325 14.475 7.55325 13.585C7.54325 13.175 7.53825 12.735 7.53825 12.265C7.53825 11.795 7.54325 11.345 7.55325 10.915C7.59325 10.045 7.80325 9.31 8.18325 8.71C8.56325 8.1 9.09325 7.64 9.77325 7.33C10.4533 7.01 11.2583 6.85 12.1883 6.85C12.8483 6.85 13.4583 6.935 14.0183 7.105C14.5783 7.265 15.0683 7.505 15.4883 7.825C15.9083 8.135 16.2333 8.515 16.4633 8.965C16.7033 9.405 16.8283 9.905 16.8383 10.465C16.8483 10.555 16.8183 10.63 16.7483 10.69C16.6883 10.75 16.6133 10.78 16.5233 10.78H14.4983C14.3683 10.78 14.2683 10.755 14.1983 10.705C14.1283 10.645 14.0683 10.54 14.0183 10.39C13.8783 9.86 13.6483 9.5 13.3283 9.31C13.0183 9.11 12.6333 9.01 12.1733 9.01C11.6233 9.01 11.1883 9.165 10.8683 9.475C10.5483 9.775 10.3733 10.28 10.3433 10.99C10.3133 11.81 10.3133 12.65 10.3433 13.51C10.3733 14.22 10.5483 14.73 10.8683 15.04C11.1883 15.34 11.6233 15.49 12.1733 15.49C12.6333 15.49 13.0233 15.39 13.3433 15.19C13.6633 14.99 13.8883 14.63 14.0183 14.11C14.0583 13.96 14.1133 13.86 14.1833 13.81C14.2633 13.75 14.3683 13.72 14.4983 13.72H16.5233C16.6133 13.72 16.6883 13.75 16.7483 13.81C16.8183 13.87 16.8483 13.945 16.8383 14.035C16.8283 14.595 16.7033 15.1 16.4633 15.55C16.2333 15.99 15.9083 16.37 15.4883 16.69C15.0683 17 14.5783 17.24 14.0183 17.41C13.4583 17.57 12.8483 17.65 12.1883 17.65Z" fill="#F05523"/>
</svg>
