<svg width="25" height="25" viewBox="0 0 25 25" fill="none" xmlns="http://www.w3.org/2000/svg">
<path d="M20.3333 4.5H4.33325C3.23025 4.5 2.33325 5.397 2.33325 6.5V18.5C2.33325 19.603 3.23025 20.5 4.33325 20.5H20.3333C21.4363 20.5 22.3333 19.603 22.3333 18.5V6.5C22.3333 5.397 21.4363 4.5 20.3333 4.5ZM12.8333 16.5C12.1702 16.5 11.5343 16.2366 11.0655 15.7678C10.5966 15.2989 10.3333 14.663 10.3333 14C10.3333 13.337 10.5966 12.7011 11.0655 12.2322C11.5343 11.7634 12.1702 11.5 12.8333 11.5C13.3759 11.5013 13.9031 11.6812 14.3333 12.012C13.7293 12.468 13.3333 13.185 13.3333 14C13.3333 14.815 13.7293 15.532 14.3333 15.988C13.9031 16.3188 13.3759 16.4987 12.8333 16.5ZM16.8333 16.5C16.1702 16.5 15.5343 16.2366 15.0655 15.7678C14.5966 15.2989 14.3333 14.663 14.3333 14C14.3333 13.337 14.5966 12.7011 15.0655 12.2322C15.5343 11.7634 16.1702 11.5 16.8333 11.5C17.4963 11.5 18.1322 11.7634 18.601 12.2322C19.0699 12.7011 19.3333 13.337 19.3333 14C19.3333 14.663 19.0699 15.2989 18.601 15.7678C18.1322 16.2366 17.4963 16.5 16.8333 16.5Z" fill="#4B424B"/>
</svg>
