<svg width="25" height="25" viewBox="0 0 25 25" fill="none" xmlns="http://www.w3.org/2000/svg">
<rect x="2.33325" y="2.5" width="20" height="20" rx="10" fill="#5F80BF"/>
<path fill-rule="evenodd" clip-rule="evenodd" d="M8.13794 12.5V18H9.24281H10.3477V15.9427V13.8853L11.9904 13.8547C13.1843 13.8324 13.7444 13.7989 14.0403 13.732C15.2083 13.4677 16.123 12.585 16.4268 11.4289C16.5599 10.922 16.563 9.89987 16.4329 9.39367C16.138 8.24681 15.2552 7.36443 14.1566 7.11834C13.9736 7.0774 12.804 7.04338 11.0019 7.02663L8.13794 7V12.5ZM14.0497 9.66535C13.8753 9.36866 13.5033 9.0893 13.141 8.983C13.0279 8.9498 12.3532 8.90694 11.6415 8.88775L10.3477 8.85286V10.4317V12.0105L11.2054 12.0095C12.2269 12.0082 13.0592 11.9289 13.358 11.8044C13.6322 11.69 13.927 11.4091 14.0879 11.1091C14.1853 10.9275 14.2129 10.7746 14.2137 10.4113C14.2146 10.004 14.1942 9.91115 14.0497 9.66535Z" fill="white"/>
</svg>
