<svg width="25" height="25" viewBox="0 0 25 25" fill="none" xmlns="http://www.w3.org/2000/svg">
<path d="M20.3333 7.5H19.1243C19.2709 7.01378 19.3414 6.50779 19.3333 6C19.3333 4.07 17.7633 2.5 15.8333 2.5C14.2113 2.5 13.1283 3.982 12.4293 5.585C11.7403 4.07 10.6023 2.5 8.83325 2.5C6.90325 2.5 5.33325 4.07 5.33325 6C5.33325 6.596 5.41225 7.089 5.54225 7.5H4.33325C3.23025 7.5 2.33325 8.397 2.33325 9.5V11.5C2.33325 12.603 3.23025 13.5 4.33325 13.5V20.5C4.33325 21.603 5.23025 22.5 6.33325 22.5H18.3333C19.4363 22.5 20.3333 21.603 20.3333 20.5V13.5C21.4363 13.5 22.3333 12.603 22.3333 11.5V9.5C22.3333 8.397 21.4363 7.5 20.3333 7.5ZM15.8333 4.5C16.6603 4.5 17.3333 5.173 17.3333 6C17.3333 7.5 16.7073 7.5 16.3333 7.5H13.8553C14.3663 5.924 15.1083 4.5 15.8333 4.5ZM7.33325 6C7.33325 5.173 8.00625 4.5 8.83325 4.5C9.72125 4.5 10.5473 6.025 11.0313 7.5H8.33325C7.95925 7.5 7.33325 7.5 7.33325 6ZM4.33325 9.5H11.3333V11.5H4.33325V9.5ZM6.33325 20.5V13.5H11.3333V20.5H6.33325ZM18.3333 20.5H13.3333V13.5H18.3333V20.5ZM13.3333 11.5V9.585L13.3503 9.5H20.3333L20.3343 11.5H13.3333Z" fill="url(#paint0_linear_191_12255)"/>
<defs>
<linearGradient id="paint0_linear_191_12255" x1="4.51619" y1="4.36797" x2="15.9671" y2="23.4528" gradientUnits="userSpaceOnUse">
<stop stop-color="#833AB4"/>
<stop offset="1" stop-color="#F56040"/>
</linearGradient>
</defs>
</svg>
