<svg width="24" height="24" viewBox="0 0 24 24" fill="none" xmlns="http://www.w3.org/2000/svg">
<path fill-rule="evenodd" clip-rule="evenodd" d="M8 2H16C19.309 2 22 4.691 22 8V16C22 19.309 19.309 22 16 22H3C2.73478 22 2.48043 21.8946 2.29289 21.7071C2.10536 21.5196 2 21.2652 2 21V8C2 4.691 4.691 2 8 2ZM16 20C18.206 20 20 18.206 20 16V8C20 5.794 18.206 4 16 4H8C5.794 4 4 5.794 4 8V20H16ZM11 7H13V11H17V13H13V17H11V13H7V11H11V7Z" fill="url(#paint0_linear_191_12809)"/>
<defs>
<linearGradient id="paint0_linear_191_12809" x1="16.6982" y1="44.6206" x2="-14.9938" y2="17.1275" gradientUnits="userSpaceOnUse">
<stop stop-color="#C03583"/>
<stop offset="0.329187" stop-color="#F45F40"/>
<stop offset="0.660009" stop-color="#F45F40"/>
<stop offset="0.945844" stop-color="#FCAF45"/>
</linearGradient>
</defs>
</svg>
