<svg width="24" height="24" viewBox="0 0 24 24" fill="none" xmlns="http://www.w3.org/2000/svg">
<path d="M17.8682 4.504C17.7807 4.35095 17.6544 4.22372 17.502 4.13521C17.3495 4.0467 17.1764 4.00006 17.0002 4H3.00017C2.82505 4.00006 2.65301 4.0461 2.50128 4.13352C2.34954 4.22094 2.22342 4.34667 2.13554 4.49814C2.04765 4.64961 2.00109 4.8215 2.00049 4.99662C1.9999 5.17174 2.04531 5.34394 2.13217 5.496L5.84917 12L2.13217 18.504C2.04531 18.6561 1.9999 18.8283 2.00049 19.0034C2.00109 19.1785 2.04765 19.3504 2.13554 19.5019C2.22342 19.6533 2.34954 19.7791 2.50128 19.8665C2.65301 19.9539 2.82505 19.9999 3.00017 20H17.0002C17.1764 19.9999 17.3495 19.9533 17.502 19.8648C17.6544 19.7763 17.7807 19.6491 17.8682 19.496L21.8682 12.496C21.9546 12.345 22.0001 12.174 22.0001 12C22.0001 11.826 21.9546 11.655 21.8682 11.504L17.8682 4.504ZM16.4202 18H4.72417L7.86917 12.496C7.95565 12.345 8.00115 12.174 8.00115 12C8.00115 11.826 7.95565 11.655 7.86917 11.504L4.72417 6H16.4202L19.8492 12L16.4202 18Z" fill="#F35F42"/>
</svg>
