<svg width="24" height="24" viewBox="0 0 24 24" fill="none" xmlns="http://www.w3.org/2000/svg">
<path fill-rule="evenodd" clip-rule="evenodd" d="M19.364 5.63512C20.1861 6.45514 20.8409 7.42717 21.292 8.49712C21.7617 9.60514 22.0025 10.7967 22 12.0001C22.0022 13.7938 21.4665 15.547 20.462 17.0331C19.486 18.4804 18.1106 19.613 16.503 20.2931C15.3939 20.7593 14.2031 20.9996 13 21.0001C11.8181 21.0008 10.6478 20.7683 9.5559 20.316C8.46403 19.8637 7.47212 19.2004 6.637 18.3641L8.051 16.9501C8.36871 17.2674 8.71595 17.5537 9.088 17.8051C9.84447 18.3169 10.6943 18.6747 11.589 18.8581C12.5206 19.0466 13.4804 19.0466 14.412 18.8581C14.862 18.7657 15.3018 18.629 15.725 18.4501C16.5558 18.0967 17.3112 17.5872 17.95 16.9491C18.267 16.6331 18.554 16.2841 18.804 15.9131C19.3168 15.1564 19.675 14.3058 19.858 13.4101C20.0466 12.4782 20.0466 11.518 19.858 10.5861C19.483 8.76782 18.4013 7.17283 16.8507 6.15179C15.3001 5.13075 13.4075 4.76723 11.589 5.14112C10.6941 5.32652 9.84394 5.68453 9.086 6.19512C8.34095 6.69964 7.69912 7.34181 7.195 8.08712C6.41346 9.2422 5.99712 10.6055 6 12.0001L6.001 12.0251H8L5 16.0001L2 12.0251H4.001L4 12.0001C3.99832 10.7964 4.23911 9.60473 4.708 8.49612C5.16133 7.42798 5.81589 6.45701 6.636 5.63612C7.87947 4.38912 9.46267 3.53596 11.188 3.18312C12.3844 2.93961 13.6176 2.93961 14.814 3.18312C16.5377 3.53823 18.1196 4.39069 19.364 5.63512ZM12 13V8H14V11H17V13H12Z" fill="url(#paint0_linear_191_8614)"/>
<defs>
<linearGradient id="paint0_linear_191_8614" x1="16.6982" y1="41.3582" x2="-12.0932" y2="13.6057" gradientUnits="userSpaceOnUse">
<stop stop-color="#C03583"/>
<stop offset="0.329187" stop-color="#F45F40"/>
<stop offset="0.660009" stop-color="#F45F40"/>
<stop offset="0.945844" stop-color="#FCAF45"/>
</linearGradient>
</defs>
</svg>
