<svg width="316" height="18" viewBox="0 0 316 18" fill="none" xmlns="http://www.w3.org/2000/svg">
<path d="M0.467727 1.01402C-0.155909 1.63766 -0.155909 2.64877 0.467727 3.27241L5.9412 8.74588C6.08146 8.88613 6.08146 9.11353 5.9412 9.25378L0.467728 14.7273C-0.155908 15.3509 -0.155909 16.362 0.467728 16.9856C1.09136 17.6093 2.10248 17.6093 2.72611 16.9856L9.49659 10.2152C10.1678 9.54395 10.1678 8.45571 9.49659 7.7845L2.72611 1.01402C2.10248 0.390383 1.09136 0.390385 0.467727 1.01402Z" fill="#FEDB7F"/>
<path d="M315.532 1.01402C316.156 1.63766 316.156 2.64877 315.532 3.27241L310.059 8.74588C309.919 8.88613 309.919 9.11353 310.059 9.25378L315.532 14.7273C316.156 15.3509 316.156 16.362 315.532 16.9856C314.909 17.6093 313.898 17.6093 313.274 16.9856L306.503 10.2152C305.832 9.54395 305.832 8.45571 306.503 7.7845L313.274 1.01402C313.898 0.390383 314.909 0.390385 315.532 1.01402Z" fill="#FEDB7F"/>
</svg>
