<svg width="52" height="53" viewBox="0 0 52 53" fill="none" xmlns="http://www.w3.org/2000/svg">
<rect y="0.5" width="52" height="52" rx="10" fill="#F77737"/>
<path d="M31.059 28.4179C31.022 28.4001 29.6369 27.718 29.3907 27.6294C29.2902 27.5934 29.1826 27.5581 29.0681 27.5581C28.8811 27.5581 28.7239 27.6513 28.6016 27.8344C28.4632 28.0401 28.0443 28.5297 27.9149 28.676C27.898 28.6953 27.8749 28.7184 27.8611 28.7184C27.8487 28.7184 27.6343 28.6301 27.5695 28.6019C26.0836 27.9565 24.9557 26.4043 24.8011 26.1426C24.779 26.1049 24.7781 26.0879 24.7779 26.0879C24.7833 26.0679 24.8333 26.0178 24.8591 25.992C24.9345 25.9173 25.0162 25.819 25.0953 25.7238C25.1328 25.6787 25.1703 25.6335 25.2071 25.591C25.3218 25.4575 25.3729 25.3538 25.4321 25.2338L25.4632 25.1714C25.6078 24.8841 25.4843 24.6417 25.4444 24.5634C25.4116 24.4979 24.8267 23.0863 24.7645 22.938C24.615 22.5802 24.4174 22.4136 24.1429 22.4136C24.1174 22.4136 24.1429 22.4136 24.036 22.4181C23.9059 22.4236 23.1974 22.5168 22.8842 22.7143C22.552 22.9237 21.99 23.5913 21.99 24.7654C21.99 25.822 22.6605 26.8197 22.9484 27.1992C22.9556 27.2087 22.9687 27.2282 22.9878 27.256C24.0904 28.8662 25.4648 30.0595 26.8582 30.6161C28.1996 31.152 28.8348 31.2139 29.1959 31.2139C29.196 31.2139 29.196 31.2139 29.196 31.2139C29.3477 31.2139 29.4692 31.202 29.5764 31.1915L29.6443 31.185C30.1077 31.1439 31.1261 30.6162 31.3577 29.9725C31.5402 29.4655 31.5883 28.9115 31.4669 28.7105C31.3838 28.5738 31.2405 28.505 31.059 28.4179Z" fill="white"/>
<path d="M26.6689 17.5C21.5231 17.5 17.3367 21.655 17.3367 26.7621C17.3367 28.4139 17.7787 30.0308 18.6162 31.4459L17.0133 36.174C16.9835 36.2622 17.0057 36.3597 17.0709 36.426C17.1179 36.4741 17.1818 36.5 17.247 36.5C17.272 36.5 17.2971 36.4962 17.3217 36.4884L22.2518 34.9218C23.6009 35.6426 25.1258 36.0231 26.6689 36.0231C31.8142 36.0231 36.0002 31.8686 36.0002 26.7621C36.0002 21.655 31.8142 17.5 26.6689 17.5ZM26.6689 34.0938C25.2168 34.0938 23.8104 33.6745 22.6014 32.8812C22.5608 32.8545 22.5136 32.8408 22.4661 32.8408C22.441 32.8408 22.4158 32.8446 22.3913 32.8524L19.9216 33.6374L20.7189 31.2853C20.7446 31.2092 20.7318 31.1252 20.6843 31.0603C19.7636 29.8024 19.277 28.3161 19.277 26.7621C19.277 22.7188 22.593 19.4294 26.6688 19.4294C30.7442 19.4294 34.0598 22.7188 34.0598 26.7621C34.0599 30.8048 30.7443 34.0938 26.6689 34.0938Z" fill="white"/>
</svg>
