<svg width="52" height="53" viewBox="0 0 52 53" fill="none" xmlns="http://www.w3.org/2000/svg">
<rect y="0.5" width="52" height="52" rx="10" fill="#F77737"/>
<path d="M26 16.5C20.486 16.5 16 20.986 16 26.5C16 32.014 20.486 36.5 26 36.5C27.466 36.5 28.961 36.129 30.442 35.396L29.557 33.603C28.353 34.198 27.156 34.5 26 34.5C21.589 34.5 18 30.911 18 26.5C18 22.089 21.589 18.5 26 18.5C30.411 18.5 34 22.089 34 26.5V27.5C34 28.192 33.687 29.5 32.5 29.5C31.104 29.5 31.006 27.681 31 27.5V22.5H29V22.525C28.1393 21.8639 27.0853 21.5038 26 21.5C23.243 21.5 21 23.743 21 26.5C21 29.257 23.243 31.5 26 31.5C27.45 31.5 28.748 30.869 29.662 29.879C30.186 30.769 31.07 31.5 32.5 31.5C34.773 31.5 36 29.439 36 27.5V26.5C36 20.986 31.514 16.5 26 16.5ZM26 29.5C24.346 29.5 23 28.154 23 26.5C23 24.846 24.346 23.5 26 23.5C27.654 23.5 29 24.846 29 26.5C29 28.154 27.654 29.5 26 29.5Z" fill="white"/>
</svg>
