<svg width="24" height="24" viewBox="0 0 24 24" fill="none" xmlns="http://www.w3.org/2000/svg">
<path d="M17.059 13.9176C17.022 13.8999 15.6369 13.2178 15.3907 13.1292C15.2902 13.0931 15.1826 13.0579 15.0681 13.0579C14.8811 13.0579 14.7239 13.1511 14.6016 13.3342C14.4632 13.5399 14.0443 14.0295 13.9149 14.1757C13.898 14.1951 13.8749 14.2181 13.8611 14.2181C13.8487 14.2181 13.6343 14.1298 13.5695 14.1017C12.0836 13.4562 10.9557 11.9041 10.8011 11.6423C10.779 11.6047 10.7781 11.5876 10.7779 11.5876C10.7833 11.5677 10.8333 11.5176 10.8591 11.4917C10.9345 11.4171 11.0162 11.3187 11.0953 11.2235C11.1328 11.1784 11.1703 11.1333 11.2071 11.0907C11.3218 10.9572 11.3729 10.8536 11.4321 10.7335L11.4632 10.6712C11.6078 10.3839 11.4843 10.1415 11.4444 10.0632C11.4116 9.99765 10.8267 8.5861 10.7645 8.4378C10.615 8.07995 10.4174 7.91333 10.1429 7.91333C10.1174 7.91333 10.1429 7.91333 10.036 7.91783C9.90591 7.92332 9.19742 8.0166 8.88416 8.21406C8.55197 8.42349 7.98999 9.09108 7.98999 10.2651C7.98999 11.3218 8.66054 12.3195 8.94844 12.6989C8.9556 12.7085 8.96874 12.7279 8.9878 12.7558C10.0904 14.366 11.4648 15.5593 12.8582 16.1159C14.1996 16.6517 14.8348 16.7137 15.1959 16.7137C15.196 16.7137 15.196 16.7137 15.196 16.7137C15.3477 16.7137 15.4692 16.7018 15.5764 16.6912L15.6443 16.6847C16.1077 16.6436 17.1261 16.116 17.3577 15.4722C17.5402 14.9652 17.5883 14.4113 17.4669 14.2102C17.3838 14.0735 17.2405 14.0047 17.059 13.9176Z" fill="#F35F42"/>
<path d="M12.6689 3C7.52309 3 3.33668 7.15495 3.33668 12.2621C3.33668 13.9139 3.77874 15.5308 4.61616 16.9459L3.01331 21.674C2.98345 21.7622 3.00566 21.8597 3.07086 21.926C3.11793 21.9741 3.18178 22 3.24698 22C3.27197 22 3.29714 21.9962 3.32169 21.9884L8.25182 20.4218C9.60094 21.1426 11.1258 21.5231 12.6689 21.5231C17.8142 21.5231 22.0002 17.3686 22.0002 12.2621C22.0002 7.15495 17.8142 3 12.6689 3ZM12.6689 19.5938C11.2168 19.5938 9.81037 19.1745 8.60141 18.3812C8.56075 18.3545 8.51356 18.3408 8.46606 18.3408C8.44095 18.3408 8.41579 18.3446 8.39129 18.3524L5.9216 19.1374L6.71886 16.7853C6.74465 16.7092 6.73176 16.6252 6.68426 16.5603C5.76362 15.3024 5.27696 13.8161 5.27696 12.2621C5.27696 8.21883 8.59295 4.92936 12.6688 4.92936C16.7442 4.92936 20.0598 8.21883 20.0598 12.2621C20.0599 16.3048 16.7443 19.5938 12.6689 19.5938Z" fill="#F35F42"/>
</svg>
