<svg width="24" height="24" viewBox="0 0 24 24" fill="none" xmlns="http://www.w3.org/2000/svg">
<g opacity="0.75">
<path fill-rule="evenodd" clip-rule="evenodd" d="M4.96618 4.96618C6.8343 3.09807 9.35831 2.03369 12 2C14.6417 2.03369 17.1657 3.09807 19.0338 4.96618C20.9019 6.8343 21.9663 9.35831 22 12C21.9877 13.5389 21.6203 15.0542 20.9265 16.4279C20.2327 17.8016 19.2312 18.9967 18 19.92V20H17.9C16.2068 21.2975 14.1332 22.0006 12 22.0006C9.86685 22.0006 7.79318 21.2975 6.1 20H6V19.92C4.76879 18.9967 3.7673 17.8016 3.07351 16.4279C2.37972 15.0542 2.01235 13.5389 2 12C2.03369 9.35831 3.09807 6.8343 4.96618 4.96618ZM9.11908 17.2336C8.58615 17.6629 8.21599 18.2614 8.07 18.93C9.26113 19.6308 10.618 20.0004 12 20.0004C13.382 20.0004 14.7389 19.6308 15.93 18.93C15.784 18.2614 15.4138 17.6629 14.8809 17.2336C14.348 16.8044 13.6843 16.5702 13 16.57H11C10.3157 16.5702 9.65202 16.8044 9.11908 17.2336ZM15.7689 15.4084C16.5891 15.9546 17.2296 16.7309 17.61 17.64C18.3593 16.903 18.9561 16.0255 19.3662 15.0578C19.7763 14.0901 19.9916 13.051 20 12C19.9741 9.88633 19.1229 7.86653 17.6282 6.37183C16.1335 4.87712 14.1137 4.02594 12 4C9.88633 4.02594 7.86653 4.87712 6.37183 6.37183C4.87712 7.86653 4.02594 9.88633 4 12C4.00835 13.051 4.22373 14.0901 4.63381 15.0578C5.0439 16.0255 5.64066 16.903 6.39 17.64C6.77037 16.7309 7.41088 15.9546 8.23108 15.4084C9.05127 14.8622 10.0146 14.5705 11 14.57H13C13.9854 14.5705 14.9487 14.8622 15.7689 15.4084ZM10.4548 6.27947C10.9456 6.08282 11.4713 5.98777 12 6.00008C12.5286 5.98777 13.0543 6.08282 13.5451 6.27947C14.036 6.47613 14.4819 6.77032 14.8558 7.14424C15.2297 7.51815 15.5239 7.96403 15.7206 8.4549C15.9172 8.94577 16.0123 9.47143 16 10.0001C16.0123 10.5287 15.9172 11.0544 15.7206 11.5453C15.5239 12.0361 15.2297 12.482 14.8558 12.8559C14.4819 13.2298 14.036 13.524 13.5451 13.7207C13.0543 13.9174 12.5286 14.0124 12 14.0001C11.4713 14.0124 10.9456 13.9174 10.4548 13.7207C9.96391 13.524 9.51803 13.2298 9.14411 12.8559C8.7702 12.482 8.47601 12.0361 8.27935 11.5453C8.08269 11.0544 7.98765 10.5287 7.99996 10.0001C7.98765 9.47143 8.08269 8.94577 8.27935 8.4549C8.47601 7.96403 8.7702 7.51815 9.14411 7.14424C9.51803 6.77032 9.96391 6.47613 10.4548 6.27947ZM11.2196 11.8741C11.4681 11.97 11.7339 12.0129 12 12.0001C12.266 12.0129 12.5318 11.97 12.7803 11.8741C13.0288 11.7781 13.2544 11.6312 13.4428 11.4429C13.6311 11.2545 13.778 11.0289 13.8739 10.7804C13.9699 10.5319 14.0128 10.2661 14 10.0001C14.0128 9.73403 13.9699 9.46824 13.8739 9.21976C13.778 8.97128 13.6311 8.74563 13.4428 8.55728C13.2544 8.36894 13.0288 8.22207 12.7803 8.12611C12.5318 8.03015 12.266 7.98722 12 8.00008C11.7339 7.98722 11.4681 8.03015 11.2196 8.12611C10.9712 8.22207 10.7455 8.36894 10.5572 8.55728C10.3688 8.74563 10.2219 8.97128 10.126 9.21976C10.03 9.46824 9.9871 9.73403 9.99996 10.0001C9.9871 10.2661 10.03 10.5319 10.126 10.7804C10.2219 11.0289 10.3688 11.2545 10.5572 11.4429C10.7455 11.6312 10.9712 11.7781 11.2196 11.8741Z" fill="white"/>
</g>
</svg>
