<svg width="24" height="24" viewBox="0 0 24 24" fill="none" xmlns="http://www.w3.org/2000/svg">
<path fill-rule="evenodd" clip-rule="evenodd" d="M13 2H11V12H13V2ZM20 13.0001C20 17.4111 16.411 21.0001 12 21.0001C7.589 21.0001 4 17.4111 4 13.0001C4 9.65011 6.072 6.77911 9 5.58911V7.81211C8.08901 8.33795 7.3323 9.09408 6.80575 10.0047C6.2792 10.9152 6.00133 11.9483 6 13.0001C6 16.3091 8.691 19.0001 12 19.0001C15.309 19.0001 18 16.3091 18 13.0001C17.9986 11.9483 17.7207 10.9153 17.1941 10.0047C16.6676 9.09417 15.9109 8.33803 15 7.81211V5.58911C17.928 6.77911 20 9.65011 20 13.0001Z" fill="white" fill-opacity="0.75"/>
</svg>
