<svg width="24" height="25" viewBox="0 0 24 25" fill="none" xmlns="http://www.w3.org/2000/svg">
<path d="M12 2.5C11.0111 2.5 10.0444 2.79324 9.22215 3.34265C8.3999 3.89206 7.75904 4.67295 7.3806 5.58658C7.00216 6.50021 6.90315 7.50555 7.09607 8.47545C7.289 9.44536 7.7652 10.3363 8.46447 11.0355C9.16373 11.7348 10.0546 12.211 11.0245 12.4039C11.9945 12.5969 12.9998 12.4978 13.9134 12.1194C14.827 11.741 15.6079 11.1001 16.1573 10.2779C16.7068 9.45561 17 8.48891 17 7.5C17 6.17392 16.4732 4.90215 15.5355 3.96447C14.5979 3.02678 13.3261 2.5 12 2.5ZM12 10.5C11.4067 10.5 10.8266 10.3241 10.3333 9.99441C9.83994 9.66476 9.45542 9.19623 9.22836 8.64805C9.0013 8.09987 8.94189 7.49667 9.05764 6.91473C9.1734 6.33279 9.45912 5.79824 9.87868 5.37868C10.2982 4.95912 10.8328 4.6734 11.4147 4.55764C11.9967 4.44189 12.5999 4.5013 13.1481 4.72836C13.6962 4.95542 14.1648 5.33994 14.4944 5.83329C14.8241 6.32664 15 6.90666 15 7.5C15 8.29565 14.6839 9.05871 14.1213 9.62132C13.5587 10.1839 12.7956 10.5 12 10.5ZM21 21.5V20.5C21 18.6435 20.2625 16.863 18.9497 15.5503C17.637 14.2375 15.8565 13.5 14 13.5H10C8.14348 13.5 6.36301 14.2375 5.05025 15.5503C3.7375 16.863 3 18.6435 3 20.5V21.5H5V20.5C5 19.1739 5.52678 17.9021 6.46447 16.9645C7.40215 16.0268 8.67392 15.5 10 15.5H14C15.3261 15.5 16.5979 16.0268 17.5355 16.9645C18.4732 17.9021 19 19.1739 19 20.5V21.5H21Z" fill="url(#paint0_linear_140_3692)"/>
<defs>
<linearGradient id="paint0_linear_140_3692" x1="16.2284" y1="42.9895" x2="-13.6076" y2="18.4689" gradientUnits="userSpaceOnUse">
<stop stop-color="#C03583"/>
<stop offset="0.329187" stop-color="#F45F40"/>
<stop offset="0.660009" stop-color="#F45F40"/>
<stop offset="0.945844" stop-color="#FCAF45"/>
</linearGradient>
</defs>
</svg>
