<svg width="24" height="24" viewBox="0 0 24 24" fill="none" xmlns="http://www.w3.org/2000/svg">
<path fill-rule="evenodd" clip-rule="evenodd" d="M11.293 5.63599L12 4.92899C12.9385 3.9928 14.2099 3.46704 15.5355 3.46704C16.8611 3.46704 18.1325 3.9928 19.071 4.92899C20.0067 5.86771 20.5321 7.13908 20.5321 8.46449C20.5321 9.78991 20.0067 11.0613 19.071 12L16.949 14.121C16.006 15.065 14.75 15.586 13.414 15.586C12.078 15.586 10.822 15.065 9.879 14.121L9.172 13.414L10.586 12L11.293 12.707C12.426 13.84 14.402 13.84 15.535 12.707L17.657 10.586C18.2185 10.0227 18.5338 9.25983 18.5338 8.46449C18.5338 7.66916 18.2185 6.90626 17.657 6.34299C17.0935 5.78198 16.3307 5.46702 15.5355 5.46702C14.7403 5.46702 13.9775 5.78198 13.414 6.34299L12.707 7.04999L11.293 5.63599ZM12.707 11.2931C11.574 10.1601 9.59802 10.1601 8.46502 11.2931L6.34302 13.4141C5.78153 13.9773 5.46623 14.7402 5.46623 15.5356C5.46623 16.3309 5.78153 17.0938 6.34302 17.6571C6.90655 18.2181 7.66935 18.533 8.46452 18.533C9.25969 18.533 10.0225 18.2181 10.586 17.6571L11.293 16.9501L12.707 18.3641L12 19.0711C11.5361 19.5358 10.9848 19.9042 10.378 20.1551C9.77114 20.406 9.12068 20.5344 8.46402 20.5331C7.80754 20.5342 7.15729 20.4057 6.55064 20.1548C5.94399 19.9039 5.3929 19.5356 4.92902 19.0711C3.99332 18.1323 3.4679 16.861 3.4679 15.5356C3.4679 14.2101 3.99332 12.9388 4.92902 12.0001L7.05102 9.87906C7.99402 8.93506 9.25002 8.41406 10.586 8.41406C11.922 8.41406 13.178 8.93506 14.121 9.87906L14.828 10.5861L13.414 12.0001L12.707 11.2931Z" fill="#FEDB7F"/>
</svg>
