<svg width="205" height="62" viewBox="0 0 205 62" fill="none" xmlns="http://www.w3.org/2000/svg">
<path d="M13.8809 26.2582C13.8809 29.0861 11.5885 31.3785 8.76059 31.3785C5.9327 31.3785 3.64025 29.0861 3.64025 26.2582C3.64025 23.4303 5.9327 21.1378 8.76059 21.1378C11.5885 21.1378 13.8809 23.4303 13.8809 26.2582Z" fill="url(#paint0_linear_214_2171)"/>
<path d="M1.21138 22.7133C2.17418 20.2626 5.07133 15.3611 8.95755 15.3611C13.8153 15.3611 18.2136 23.5011 18.2136 32.3632C18.2136 33.2696 18.9668 34.0577 19.837 33.8041C21.6602 33.2729 23.0707 31.5048 24.056 26.4551C24.3122 25.1422 24.6605 18.8555 27.4039 15.1641C29.1107 12.8676 32.498 10.5651 35.347 9.26586C40.532 6.90136 47.8408 5.83673 50.1173 6.69585L50.1489 6.66422C44.8701 2.4911 38.2003 0 30.9488 0C16.7518 0 4.78499 9.54813 1.1195 22.5731L1.21138 22.7133Z" fill="url(#paint1_linear_214_2171)"/>
<path d="M35.4305 48.1546C37.8795 46.7406 41.0111 47.5797 42.425 50.0288C43.839 52.4778 42.9999 55.6093 40.5509 57.0233C38.1018 58.4372 34.9703 57.5981 33.5563 55.1491C32.1424 52.7001 32.9815 49.5685 35.4305 48.1546Z" fill="url(#paint2_linear_214_2171)"/>
<path d="M38.6954 60.8992C36.0915 61.2907 30.3981 61.2325 28.455 57.8669C26.0261 53.66 30.8765 45.781 38.5513 41.3499C39.3363 40.8967 39.6421 39.8504 38.9875 39.2235C37.6158 37.9102 35.3793 37.5727 30.5135 39.2442C29.2484 39.6788 23.6298 42.5206 19.0613 41.9904C16.2191 41.6605 12.5313 39.8783 9.98169 38.0606C5.34146 34.7525 0.765061 28.9552 0.370871 26.5542L0.327667 26.5426C-0.646953 33.2008 0.530557 40.2225 4.15633 46.5025C11.2548 58.7974 25.5071 64.3869 38.6199 61.0489L38.6954 60.8992Z" fill="url(#paint3_linear_214_2171)"/>
<path d="M43.5562 18.6069C41.1072 17.193 40.2681 14.0614 41.682 11.6124C43.096 9.16337 46.2275 8.32428 48.6765 9.73822C51.1256 11.1522 51.9647 14.2837 50.5507 16.7327C49.1368 19.1818 46.0052 20.0209 43.5562 18.6069Z" fill="url(#paint4_linear_214_2171)"/>
<path d="M52.9609 9.40718C54.6019 11.4664 57.3982 16.4261 55.4551 19.7917C53.0262 23.9986 43.7776 23.7376 36.1028 19.3066C35.3178 18.8534 34.2587 19.1116 34.0432 19.992C33.5917 21.8366 34.4176 23.9422 38.2981 27.3203C39.307 28.1986 44.5774 31.6437 46.4024 35.8652C47.5379 38.4916 47.8383 42.5764 47.5389 45.6932C46.9941 51.3658 44.2617 58.2278 42.3795 59.7697L42.3911 59.8129C48.6445 57.3278 54.1367 52.7972 57.7625 46.5172C64.861 34.2223 62.5755 19.0846 53.1283 9.39773L52.9609 9.40718Z" fill="url(#paint5_linear_214_2171)"/>
<path fill-rule="evenodd" clip-rule="evenodd" d="M182.425 22.7501L179.452 40.2903H186.067L187.197 33.4526H195.283V40.2903H201.861V18.4394C201.885 17.6714 201.91 16.9158 201.935 16.1726C201.985 15.4294 202.059 14.8348 202.158 14.3888L202.084 13.9429C201.093 13.7199 199.99 13.5465 198.776 13.4227C197.562 13.2988 196.435 13.2368 195.395 13.2368C193.586 13.2368 191.951 13.3731 190.489 13.6456C189.028 13.9181 187.752 14.4012 186.662 15.0949C185.596 15.7886 184.705 16.7548 183.986 17.9935C183.268 19.2322 182.747 20.8178 182.425 22.7501ZM188.929 22.9731L188.069 28.1757H195.283V21.0036C195.283 20.2851 195.308 19.6286 195.357 19.034C195.366 18.9593 195.376 18.8854 195.385 18.8125L195.357 18.811C194.912 18.7615 194.49 18.7367 194.094 18.7367C192.93 18.7367 192.001 18.8977 191.307 19.2198C190.613 19.5171 190.081 19.9754 189.709 20.5948C189.362 21.2141 189.102 22.0069 188.929 22.9731Z" fill="url(#paint6_linear_214_2171)"/>
<path d="M119.54 40.2903L114.053 32.1134L108.764 40.2903H101.666V39.8815L110.641 27.0962L101.517 13.9429V13.5341H108.801L114.269 21.6828L119.54 13.5341H126.638V13.9429L117.682 26.7015L126.824 39.8815V40.2903H119.54Z" fill="url(#paint7_linear_214_2171)"/>
<path fill-rule="evenodd" clip-rule="evenodd" d="M171.14 14.6861C169.555 13.9181 167.548 13.5341 165.12 13.5341H154.195V40.2903H160.809V33.9357H164.191C164.492 33.9357 164.79 33.9262 165.086 33.9072L169.505 40.2903H176.789V39.9187L170.795 32.1332C171.351 31.7884 171.875 31.3982 172.367 30.9628C173.481 29.9966 174.361 28.8322 175.005 27.4696C175.649 26.0823 175.971 24.5215 175.971 22.7873C175.971 20.9045 175.562 19.2694 174.745 17.882C173.952 16.4947 172.751 15.4294 171.14 14.6861ZM167.052 27.8041C166.284 28.3243 165.281 28.5845 164.042 28.5845H160.809V19.034H165.083C166.371 19.034 167.399 19.3561 168.167 20.0002C168.96 20.6443 169.356 21.6477 169.356 23.0103C169.356 23.9765 169.171 24.8807 168.799 25.723C168.427 26.5654 167.845 27.259 167.052 27.8041Z" fill="url(#paint8_linear_214_2171)"/>
<path d="M80.743 40.2903V13.5341H98.5433V19.257H87.3578V24.1623H96.6481V29.5878H87.3578V34.5674H98.8778V40.2903H80.743Z" fill="url(#paint9_linear_214_2171)"/>
<path d="M150.708 13.5341H128.559V19.257H136.326V40.2903H142.904V19.257H150.708V13.5341Z" fill="url(#paint10_linear_214_2171)"/>
<path d="M82.2389 54.4116V52.751H84.1434C84.5305 52.751 84.8402 52.6736 85.0724 52.5187C85.3124 52.3639 85.4827 52.1587 85.5834 51.9032C85.6918 51.6478 85.746 51.3652 85.746 51.0555C85.746 50.6529 85.6298 50.3626 85.3976 50.1845C85.1731 49.9987 84.8789 49.9058 84.515 49.9058H82.2389V48.1871H84.4918C85.5756 48.1871 86.3963 48.4349 86.9537 48.9303C87.5111 49.4258 87.7898 50.1149 87.7898 50.9974C87.7898 51.4697 87.7124 51.9149 87.5576 52.3329C87.4105 52.751 87.186 53.1149 86.884 53.4245C86.5821 53.7342 86.2066 53.9781 85.7576 54.1561C85.3163 54.3265 84.8014 54.4116 84.2131 54.4116H82.2389ZM81.124 56.5484V48.1871H83.1911V56.5484H81.124Z" fill="#838383"/>
<path d="M108.966 56.5484L109.895 51.0671C109.996 50.4632 110.159 49.9678 110.383 49.5807C110.608 49.1936 110.886 48.8916 111.219 48.6749C111.56 48.4581 111.959 48.3071 112.415 48.222C112.872 48.1368 113.383 48.0942 113.948 48.0942C114.273 48.0942 114.626 48.1136 115.005 48.1523C115.384 48.191 115.729 48.2452 116.039 48.3149L116.062 48.4542C116.031 48.5936 116.008 48.7794 115.992 49.0116C115.984 49.2439 115.977 49.48 115.969 49.72C115.969 49.96 115.969 50.1574 115.969 50.3123V56.5484H113.913V50.5213C113.913 50.2968 113.921 50.0916 113.937 49.9058C113.96 49.7123 113.987 49.5381 114.018 49.3832L114.285 49.8826C114.2 49.8594 114.084 49.8439 113.937 49.8361C113.797 49.8207 113.666 49.8129 113.542 49.8129C113.178 49.8129 112.888 49.8632 112.671 49.9639C112.454 50.0568 112.288 50.2 112.171 50.3936C112.063 50.5871 111.982 50.8349 111.928 51.1368L111.033 56.5484H108.966ZM110.453 54.4116V52.7626H114.866V54.4116H110.453Z" fill="#838383"/>
<path d="M138.589 56.5484V48.1871H140.238L144.384 52.3794V55.0852L140.064 50.7187L140.656 50.4749V56.5484H138.589ZM143.699 56.5484V48.1871H145.754V56.5484H143.699Z" fill="#838383"/>
<path d="M168.371 56.5484V48.1871H170.438V56.5484H168.371ZM169.486 56.5484V54.76H174.038V56.5484H169.486ZM169.486 53.2039V51.5084H173.341V53.2039H169.486ZM169.486 49.9755V48.1871H173.934V49.9755H169.486Z" fill="#838383"/>
<path d="M196.338 56.5484V48.1871H198.405V54.76H201.587V56.5484H196.338Z" fill="#838383"/>
<defs>
<linearGradient id="paint0_linear_214_2171" x1="17.4643" y1="-16.6923" x2="17.4643" y2="62" gradientUnits="userSpaceOnUse">
<stop stop-color="#FCAF45"/>
<stop offset="1" stop-color="#C94765"/>
</linearGradient>
<linearGradient id="paint1_linear_214_2171" x1="11.5567" y1="54.4594" x2="59.2915" y2="35.387" gradientUnits="userSpaceOnUse">
<stop stop-color="#FCAF45"/>
<stop offset="1" stop-color="#F56040"/>
</linearGradient>
<linearGradient id="paint2_linear_214_2171" x1="21.2316" y1="9.00613" x2="56.7583" y2="60.0236" gradientUnits="userSpaceOnUse">
<stop stop-color="#833AB4"/>
<stop offset="1" stop-color="#B3368F"/>
</linearGradient>
<linearGradient id="paint3_linear_214_2171" x1="3.92436" y1="8.59751" x2="63.4392" y2="42.7248" gradientUnits="userSpaceOnUse">
<stop stop-color="#7045C5"/>
<stop offset="1" stop-color="#F56040"/>
</linearGradient>
<linearGradient id="paint4_linear_214_2171" x1="30.9594" y1="0" x2="9.43744" y2="56.4525" gradientUnits="userSpaceOnUse">
<stop stop-color="#DD316F"/>
<stop offset="1" stop-color="#F66E41"/>
</linearGradient>
<linearGradient id="paint5_linear_214_2171" x1="65.3864" y1="65.186" x2="-16.321" y2="-48.9227" gradientUnits="userSpaceOnUse">
<stop stop-color="#405DE6"/>
<stop offset="0.0790301" stop-color="#5B51D8"/>
<stop offset="0.167277" stop-color="#833AB4"/>
<stop offset="0.286458" stop-color="#C13584"/>
<stop offset="0.40625" stop-color="#E1306C"/>
<stop offset="0.526042" stop-color="#FD1D1D"/>
<stop offset="0.645833" stop-color="#F56040"/>
<stop offset="0.765625" stop-color="#F77737"/>
<stop offset="0.885417" stop-color="#FCAF45"/>
<stop offset="1" stop-color="#FFDC80"/>
</linearGradient>
<linearGradient id="paint6_linear_214_2171" x1="89.5317" y1="-10.8065" x2="165.79" y2="65.4516" gradientUnits="userSpaceOnUse">
<stop stop-color="#833AB4"/>
<stop offset="1" stop-color="#F56040"/>
</linearGradient>
<linearGradient id="paint7_linear_214_2171" x1="89.5317" y1="-10.8065" x2="165.79" y2="65.4516" gradientUnits="userSpaceOnUse">
<stop stop-color="#833AB4"/>
<stop offset="1" stop-color="#F56040"/>
</linearGradient>
<linearGradient id="paint8_linear_214_2171" x1="89.5317" y1="-10.8065" x2="165.79" y2="65.4516" gradientUnits="userSpaceOnUse">
<stop stop-color="#833AB4"/>
<stop offset="1" stop-color="#F56040"/>
</linearGradient>
<linearGradient id="paint9_linear_214_2171" x1="89.5317" y1="-10.8065" x2="165.79" y2="65.4516" gradientUnits="userSpaceOnUse">
<stop stop-color="#833AB4"/>
<stop offset="1" stop-color="#F56040"/>
</linearGradient>
<linearGradient id="paint10_linear_214_2171" x1="89.5317" y1="-10.8065" x2="165.79" y2="65.4516" gradientUnits="userSpaceOnUse">
<stop stop-color="#833AB4"/>
<stop offset="1" stop-color="#F56040"/>
</linearGradient>
</defs>
</svg>
