<svg width="164" height="64" viewBox="0 0 164 64" fill="none" xmlns="http://www.w3.org/2000/svg">
<path fill-rule="evenodd" clip-rule="evenodd" d="M134.988 20.3437L131.148 42.9997H139.692L141.151 34.1677H151.596V42.9997H160.092V14.7757C160.124 13.7837 160.156 12.8077 160.188 11.8477C160.252 10.8877 160.348 10.1197 160.476 9.54366L160.38 8.96766C159.1 8.67966 157.676 8.45566 156.108 8.29566C154.54 8.13566 153.084 8.05566 151.74 8.05566C149.404 8.05566 147.292 8.23166 145.404 8.58367C143.516 8.93567 141.868 9.55966 140.46 10.4557C139.084 11.3517 137.932 12.5997 137.004 14.1997C136.076 15.7997 135.404 17.8477 134.988 20.3437ZM143.388 20.6317L142.277 27.3517H151.596V18.0877C151.596 17.1597 151.628 16.3117 151.692 15.5437C151.703 15.4471 151.715 15.3518 151.727 15.2576L151.692 15.2557C151.116 15.1917 150.572 15.1597 150.06 15.1597C148.556 15.1597 147.356 15.3677 146.46 15.7837C145.564 16.1677 144.876 16.7597 144.396 17.5597C143.948 18.3597 143.612 19.3837 143.388 20.6317Z" fill="#FFF4E2"/>
<path d="M53.7611 42.9997L46.6731 32.4379L39.8411 42.9997H30.6731V42.4717L42.2656 25.9574L30.4811 8.96766V8.43966H39.8891L46.9526 18.965L53.7611 8.43966H62.9291V8.96766L51.3607 25.4475L63.1691 42.4717V42.9997H53.7611Z" fill="#FFF4E2"/>
<path fill-rule="evenodd" clip-rule="evenodd" d="M120.411 9.92767C118.363 8.93567 115.771 8.43966 112.635 8.43966H98.5229V42.9997H107.067V34.7917H111.435C111.823 34.7917 112.209 34.7794 112.591 34.7549L118.299 42.9997H127.707V42.5197L119.965 32.4635C120.684 32.018 121.36 31.5141 121.995 30.9517C123.435 29.7037 124.571 28.1997 125.403 26.4397C126.235 24.6477 126.651 22.6317 126.651 20.3917C126.651 17.9597 126.123 15.8477 125.067 14.0557C124.043 12.2637 122.491 10.8877 120.411 9.92767ZM115.131 26.8717C114.139 27.5437 112.843 27.8797 111.243 27.8797H107.067V15.5437H112.587C114.251 15.5437 115.579 15.9597 116.571 16.7917C117.595 17.6237 118.107 18.9197 118.107 20.6797C118.107 21.9277 117.867 23.0957 117.387 24.1837C116.907 25.2717 116.155 26.1677 115.131 26.8717Z" fill="#FFF4E2"/>
<path d="M3.64795 42.9997V8.43966H26.6399V15.8317H12.1919V22.1677H24.1919V29.1757H12.1919V35.6077H27.0719V42.9997H3.64795Z" fill="#FFF4E2"/>
<path d="M94.0188 8.43966H65.4108V15.8317H75.4428V42.9997H83.9388V15.8317H94.0188V8.43966Z" fill="#FFF4E2"/>
<path d="M5.58 61.24V59.095H8.04C8.54 59.095 8.94 58.995 9.24 58.795C9.55 58.595 9.77 58.33 9.9 58C10.04 57.67 10.11 57.305 10.11 56.905C10.11 56.385 9.96 56.01 9.66 55.78C9.37 55.54 8.99 55.42 8.52 55.42H5.58V53.2H8.49C9.89 53.2 10.95 53.52 11.67 54.16C12.39 54.8 12.75 55.69 12.75 56.83C12.75 57.44 12.65 58.015 12.45 58.555C12.26 59.095 11.97 59.565 11.58 59.965C11.19 60.365 10.705 60.68 10.125 60.91C9.555 61.13 8.89 61.24 8.13 61.24H5.58ZM4.14 64V53.2H6.81V64H4.14ZM40.103 64L41.303 56.92C41.433 56.14 41.643 55.5 41.933 55C42.223 54.5 42.583 54.11 43.013 53.83C43.453 53.55 43.968 53.355 44.558 53.245C45.148 53.135 45.808 53.08 46.538 53.08C46.958 53.08 47.413 53.105 47.903 53.155C48.393 53.205 48.838 53.275 49.238 53.365L49.268 53.545C49.228 53.725 49.198 53.965 49.178 54.265C49.168 54.565 49.158 54.87 49.148 55.18C49.148 55.49 49.148 55.745 49.148 55.945V64H46.493V56.215C46.493 55.925 46.503 55.66 46.523 55.42C46.553 55.17 46.588 54.945 46.628 54.745L46.973 55.39C46.863 55.36 46.713 55.34 46.523 55.33C46.343 55.31 46.173 55.3 46.013 55.3C45.543 55.3 45.168 55.365 44.888 55.495C44.608 55.615 44.393 55.8 44.243 56.05C44.103 56.3 43.998 56.62 43.928 57.01L42.773 64H40.103ZM42.023 61.24V59.11H47.723V61.24H42.023ZM78.366 64V53.2H80.496L85.851 58.615V62.11L80.271 56.47L81.036 56.155V64H78.366ZM84.966 64V53.2H87.621V64H84.966ZM116.834 64V53.2H119.504V64H116.834ZM118.274 64V61.69H124.154V64H118.274ZM118.274 59.68V57.49H123.254V59.68H118.274ZM118.274 55.51V53.2H124.019V55.51H118.274ZM152.958 64V53.2H155.628V61.69H159.738V64H152.958Z" fill="#FEDB7F"/>
</svg>
