<svg width="156" height="49" viewBox="0 0 156 49" fill="none" xmlns="http://www.w3.org/2000/svg">
<g filter="url(#filter0_i_361_1707)">
<path d="M10.9711 20.8289C10.9711 23.0183 9.19633 24.7931 7.00699 24.7931C4.81766 24.7931 3.04286 23.0183 3.04286 20.8289C3.04286 18.6396 4.81766 16.8648 7.00699 16.8648C9.19633 16.8648 10.9711 18.6396 10.9711 20.8289Z" fill="url(#paint0_linear_361_1707)"/>
<path d="M1.16244 18.0845C1.90784 16.1872 4.15079 12.3924 7.15947 12.3924C10.9203 12.3924 14.3254 18.6944 14.3254 25.5554C14.3254 26.2571 14.9086 26.8672 15.5823 26.6709C16.9938 26.2596 18.0858 24.8908 18.8486 20.9814C19.0469 19.9649 19.3166 15.0978 21.4405 12.24C22.7619 10.462 25.3844 8.67941 27.59 7.67357C31.6042 5.84299 37.2627 5.01876 39.0251 5.68389L39.0495 5.6594C34.9627 2.42859 29.799 0.5 24.1849 0.5C13.1938 0.5 3.92911 7.8921 1.09131 17.976L1.16244 18.0845Z" fill="url(#paint1_linear_361_1707)"/>
</g>
<g filter="url(#filter1_i_361_1707)">
<path d="M27.6552 37.7809C29.5512 36.6863 31.9756 37.3359 33.0703 39.2319C34.165 41.1279 33.5153 43.5523 31.6193 44.647C29.7233 45.7417 27.2989 45.0921 26.2042 43.196C25.1095 41.3 25.7591 38.8756 27.6552 37.7809Z" fill="url(#paint2_linear_361_1707)"/>
<path d="M30.1828 47.6477C28.1669 47.9509 23.7591 47.9058 22.2548 45.3002C20.3744 42.0432 24.1295 35.9433 30.0713 32.5128C30.679 32.1619 30.9158 31.3519 30.4089 30.8666C29.347 29.8498 27.6155 29.5885 23.8485 30.8826C22.869 31.2191 18.5191 33.4191 14.9822 33.0086C12.7818 32.7533 9.92676 31.3735 7.95286 29.9662C4.36042 27.4051 0.817403 22.9169 0.512224 21.058L0.478776 21.0491C-0.275769 26.2038 0.635851 31.6399 3.4429 36.5019C8.93849 46.0205 19.9726 50.3479 30.1243 47.7636L30.1828 47.6477Z" fill="url(#paint3_linear_361_1707)"/>
</g>
<g filter="url(#filter2_i_361_1707)">
<path d="M33.9457 14.9052C32.0497 13.8105 31.4001 11.3861 32.4947 9.49006C33.5894 7.59404 36.0138 6.94441 37.9099 8.03908C39.8059 9.13375 40.4555 11.5582 39.3608 13.4542C38.2662 15.3502 35.8417 15.9998 33.9457 14.9052Z" fill="url(#paint4_linear_361_1707)"/>
<path d="M33.9457 14.9052C32.0497 13.8105 31.4001 11.3861 32.4947 9.49006C33.5894 7.59404 36.0138 6.94441 37.9099 8.03908C39.8059 9.13375 40.4555 11.5582 39.3608 13.4542C38.2662 15.3502 35.8417 15.9998 33.9457 14.9052Z" fill="white" fill-opacity="0.63" style="mix-blend-mode:overlay"/>
<path d="M41.2268 7.78279C42.4973 9.377 44.6621 13.2168 43.1578 15.8224C41.2773 19.0794 34.1171 18.8773 28.1753 15.4468C27.5676 15.096 26.7477 15.2959 26.5808 15.9775C26.2313 17.4056 26.8707 19.0357 29.8749 21.651C30.6561 22.331 34.7363 24.9981 36.1493 28.2664C37.0283 30.2997 37.2609 33.4622 37.0291 35.8752C36.6074 40.2669 34.492 45.5794 33.0347 46.7731L33.0437 46.8065C37.8851 44.8826 42.1371 41.3751 44.9442 36.5131C50.4398 26.9945 48.6704 15.275 41.3564 7.77547L41.2268 7.78279Z" fill="url(#paint5_linear_361_1707)"/>
<path d="M41.2268 7.78279C42.4973 9.377 44.6621 13.2168 43.1578 15.8224C41.2773 19.0794 34.1171 18.8773 28.1753 15.4468C27.5676 15.096 26.7477 15.2959 26.5808 15.9775C26.2313 17.4056 26.8707 19.0357 29.8749 21.651C30.6561 22.331 34.7363 24.9981 36.1493 28.2664C37.0283 30.2997 37.2609 33.4622 37.0291 35.8752C36.6074 40.2669 34.492 45.5794 33.0347 46.7731L33.0437 46.8065C37.8851 44.8826 42.1371 41.3751 44.9442 36.5131C50.4398 26.9945 48.6704 15.275 41.3564 7.77547L41.2268 7.78279Z" fill="white" fill-opacity="0.63" style="mix-blend-mode:overlay"/>
</g>
<path fill-rule="evenodd" clip-rule="evenodd" d="M139.846 15.0163L137.545 28.5957H142.666L143.54 23.302H149.801V28.5957H154.893V11.6789C154.912 11.0843 154.931 10.4994 154.951 9.92396C154.989 9.34856 155.046 8.88824 155.123 8.54299L155.066 8.19775C154.298 8.02513 153.445 7.89087 152.505 7.79497C151.565 7.69907 150.693 7.65112 149.887 7.65112C148.487 7.65112 147.221 7.75661 146.089 7.96759C144.958 8.17857 143.97 8.55258 143.126 9.08962C142.301 9.62667 141.611 10.3747 141.055 11.3337C140.498 12.2927 140.096 13.5202 139.846 15.0163ZM144.881 15.1889L144.215 19.2167H149.801V13.6641C149.801 13.1078 149.82 12.5996 149.858 12.1392C149.865 12.0814 149.872 12.0242 149.879 11.9678L149.858 11.9666C149.513 11.9283 149.187 11.9091 148.88 11.9091C147.979 11.9091 147.259 12.0338 146.722 12.2831C146.185 12.5133 145.773 12.8681 145.485 13.3476C145.217 13.8271 145.015 14.4409 144.881 15.1889Z" fill="#FFF4E2"/>
<path d="M91.1611 28.5957L86.9127 22.2652L82.8178 28.5957H77.3227V28.2792L84.271 18.381L77.2076 8.19775V7.88128H82.8466L87.0803 14.1899L91.1611 7.88128H96.6562V8.19775L89.7224 18.0754L96.8 28.2792V28.5957H91.1611Z" fill="#FFF4E2"/>
<path fill-rule="evenodd" clip-rule="evenodd" d="M131.109 8.77316C129.882 8.17857 128.328 7.88128 126.449 7.88128H117.99V28.5957H123.111V23.676H125.729C125.962 23.676 126.193 23.6687 126.422 23.654L129.844 28.5957H135.482V28.308L130.842 22.2806C131.273 22.0136 131.678 21.7115 132.059 21.3744C132.922 20.6264 133.603 19.7249 134.101 18.67C134.6 17.596 134.85 16.3876 134.85 15.045C134.85 13.5873 134.533 12.3215 133.9 11.2474C133.286 10.1733 132.356 9.34856 131.109 8.77316ZM127.945 18.929C127.35 19.3318 126.573 19.5331 125.614 19.5331H123.111V12.1392H126.42C127.417 12.1392 128.213 12.3886 128.808 12.8873C129.422 13.3859 129.728 14.1627 129.728 15.2176C129.728 15.9657 129.585 16.6657 129.297 17.3179C129.009 17.97 128.558 18.507 127.945 18.929Z" fill="#FFF4E2"/>
<path d="M61.1245 28.5957V7.88128H74.9054V12.3119H66.2456V16.1095H73.4381V20.3099H66.2456V24.1651H75.1643V28.5957H61.1245Z" fill="#FFF4E2"/>
<path d="M115.291 7.88128H98.1437V12.3119H104.157V28.5957H109.249V12.3119H115.291V7.88128Z" fill="#FFF4E2"/>
<path d="M62.2825 39.5284V38.2427H63.757C64.0567 38.2427 64.2964 38.1828 64.4763 38.0629C64.6621 37.943 64.7939 37.7842 64.8718 37.5864C64.9558 37.3886 64.9977 37.1698 64.9977 36.9301C64.9977 36.6184 64.9078 36.3936 64.728 36.2558C64.5542 36.1119 64.3264 36.04 64.0447 36.04H62.2825V34.7094H64.0267C64.8658 34.7094 65.5012 34.9012 65.9327 35.2848C66.3643 35.6684 66.5801 36.2018 66.5801 36.8851C66.5801 37.2507 66.5201 37.5954 66.4002 37.919C66.2864 38.2427 66.1125 38.5244 65.8788 38.7642C65.645 39.0039 65.3543 39.1927 65.0067 39.3306C64.6651 39.4624 64.2665 39.5284 63.8109 39.5284H62.2825ZM61.4194 41.1826V34.7094H63.0198V41.1826H61.4194Z" fill="#FCD4C8"/>
<path d="M82.9748 41.1826L83.694 36.9391C83.7719 36.4715 83.8978 36.0879 84.0716 35.7883C84.2454 35.4886 84.4612 35.2548 84.719 35.087C84.9827 34.9192 85.2914 34.8023 85.645 34.7363C85.9986 34.6704 86.3942 34.6375 86.8318 34.6375C87.0835 34.6375 87.3562 34.6524 87.6499 34.6824C87.9436 34.7124 88.2103 34.7543 88.4501 34.8083L88.4681 34.9162C88.4441 35.024 88.4261 35.1679 88.4141 35.3477C88.4081 35.5275 88.4021 35.7103 88.3961 35.8961C88.3961 36.0819 88.3961 36.2348 88.3961 36.3547V41.1826H86.8048V36.5165C86.8048 36.3427 86.8108 36.1838 86.8228 36.04C86.8407 35.8901 86.8617 35.7553 86.8857 35.6354L87.0925 36.022C87.0266 36.004 86.9366 35.992 86.8228 35.986C86.7149 35.9741 86.613 35.9681 86.5171 35.9681C86.2354 35.9681 86.0106 36.007 85.8428 36.0849C85.675 36.1569 85.5461 36.2678 85.4562 36.4176C85.3723 36.5674 85.3093 36.7592 85.2674 36.993L84.5751 41.1826H82.9748ZM84.1256 39.5284V38.2517H87.542V39.5284H84.1256Z" fill="#FCD4C8"/>
<path d="M105.909 41.1826V34.7094H107.185L110.395 37.955V40.0498L107.051 36.6693L107.509 36.4805V41.1826H105.909ZM109.865 41.1826V34.7094H111.456V41.1826H109.865Z" fill="#FCD4C8"/>
<path d="M128.965 41.1826V34.7094H130.566V41.1826H128.965ZM129.829 41.1826V39.7981H133.353V41.1826H129.829ZM129.829 38.5933V37.2807H132.813V38.5933H129.829ZM129.829 36.0939V34.7094H133.272V36.0939H129.829Z" fill="#FCD4C8"/>
<path d="M150.617 41.1826V34.7094H152.218V39.7981H154.681V41.1826H150.617Z" fill="#FCD4C8"/>
<defs>
<filter id="filter0_i_361_1707" x="1.09131" y="0.5" width="37.958" height="30.2083" filterUnits="userSpaceOnUse" color-interpolation-filters="sRGB">
<feFlood flood-opacity="0" result="BackgroundImageFix"/>
<feBlend mode="normal" in="SourceGraphic" in2="BackgroundImageFix" result="shape"/>
<feColorMatrix in="SourceAlpha" type="matrix" values="0 0 0 0 0 0 0 0 0 0 0 0 0 0 0 0 0 0 127 0" result="hardAlpha"/>
<feOffset dy="4"/>
<feGaussianBlur stdDeviation="2"/>
<feComposite in2="hardAlpha" operator="arithmetic" k2="-1" k3="1"/>
<feColorMatrix type="matrix" values="0 0 0 0 1 0 0 0 0 1 0 0 0 0 1 0 0 0 0.33 0"/>
<feBlend mode="overlay" in2="shape" result="effect1_innerShadow_361_1707"/>
</filter>
<filter id="filter1_i_361_1707" x="0.225098" y="21.0491" width="33.377" height="31.4509" filterUnits="userSpaceOnUse" color-interpolation-filters="sRGB">
<feFlood flood-opacity="0" result="BackgroundImageFix"/>
<feBlend mode="normal" in="SourceGraphic" in2="BackgroundImageFix" result="shape"/>
<feColorMatrix in="SourceAlpha" type="matrix" values="0 0 0 0 0 0 0 0 0 0 0 0 0 0 0 0 0 0 127 0" result="hardAlpha"/>
<feOffset dy="4"/>
<feGaussianBlur stdDeviation="2"/>
<feComposite in2="hardAlpha" operator="arithmetic" k2="-1" k3="1"/>
<feColorMatrix type="matrix" values="0 0 0 0 1 0 0 0 0 1 0 0 0 0 1 0 0 0 0.33 0"/>
<feBlend mode="overlay" in2="shape" result="effect1_innerShadow_361_1707"/>
</filter>
<filter id="filter2_i_361_1707" x="26.4946" y="7.50732" width="21.6675" height="43.2993" filterUnits="userSpaceOnUse" color-interpolation-filters="sRGB">
<feFlood flood-opacity="0" result="BackgroundImageFix"/>
<feBlend mode="normal" in="SourceGraphic" in2="BackgroundImageFix" result="shape"/>
<feColorMatrix in="SourceAlpha" type="matrix" values="0 0 0 0 0 0 0 0 0 0 0 0 0 0 0 0 0 0 127 0" result="hardAlpha"/>
<feOffset dy="4"/>
<feGaussianBlur stdDeviation="2"/>
<feComposite in2="hardAlpha" operator="arithmetic" k2="-1" k3="1"/>
<feColorMatrix type="matrix" values="0 0 0 0 1 0 0 0 0 1 0 0 0 0 1 0 0 0 0.33 0"/>
<feBlend mode="overlay" in2="shape" result="effect1_innerShadow_361_1707"/>
</filter>
<linearGradient id="paint0_linear_361_1707" x1="3.81369" y1="-28.5039" x2="52.3225" y2="-14.2209" gradientUnits="userSpaceOnUse">
<stop stop-color="#FCAF45"/>
<stop offset="1" stop-color="#F56040"/>
</linearGradient>
<linearGradient id="paint1_linear_361_1707" x1="8.17591" y1="23.5207" x2="33.5807" y2="8.80014" gradientUnits="userSpaceOnUse">
<stop stop-color="#FCAF45"/>
<stop offset="1" stop-color="#F56040"/>
</linearGradient>
<linearGradient id="paint2_linear_361_1707" x1="2.3405" y1="24.8557" x2="31.0015" y2="44.8647" gradientUnits="userSpaceOnUse">
<stop stop-color="#9661FF"/>
<stop offset="1" stop-color="#F57640"/>
</linearGradient>
<linearGradient id="paint3_linear_361_1707" x1="2.3405" y1="24.8557" x2="31.0015" y2="44.8647" gradientUnits="userSpaceOnUse">
<stop stop-color="#9661FF"/>
<stop offset="1" stop-color="#F57640"/>
</linearGradient>
<linearGradient id="paint4_linear_361_1707" x1="48.2248" y1="62.4353" x2="-13.3738" y2="-72.3949" gradientUnits="userSpaceOnUse">
<stop stop-color="#405DE6"/>
<stop offset="0.0790301" stop-color="#5B51D8"/>
<stop offset="0.167277" stop-color="#833AB4"/>
<stop offset="0.286458" stop-color="#C13584"/>
<stop offset="0.40625" stop-color="#E1306C"/>
<stop offset="0.526042" stop-color="#FD1D1D"/>
<stop offset="0.645833" stop-color="#F56040"/>
<stop offset="0.765625" stop-color="#F77737"/>
<stop offset="0.885417" stop-color="#FCAF45"/>
<stop offset="1" stop-color="#FFDC80"/>
</linearGradient>
<linearGradient id="paint5_linear_361_1707" x1="48.2248" y1="62.4353" x2="-13.3738" y2="-72.3949" gradientUnits="userSpaceOnUse">
<stop stop-color="#405DE6"/>
<stop offset="0.0790301" stop-color="#5B51D8"/>
<stop offset="0.167277" stop-color="#833AB4"/>
<stop offset="0.286458" stop-color="#C13584"/>
<stop offset="0.40625" stop-color="#E1306C"/>
<stop offset="0.526042" stop-color="#FD1D1D"/>
<stop offset="0.645833" stop-color="#F56040"/>
<stop offset="0.765625" stop-color="#F77737"/>
<stop offset="0.885417" stop-color="#FCAF45"/>
<stop offset="1" stop-color="#FFDC80"/>
</linearGradient>
</defs>
</svg>
