<svg width="22" height="15" viewBox="0 0 22 15" fill="none" xmlns="http://www.w3.org/2000/svg">
<path d="M10.9999 5.5C10.9999 6.595 11.9049 7.5 12.9999 7.5C13.3539 7.5 13.6829 7.397 13.9729 7.232C13.9757 7.26748 13.9805 7.30233 13.9853 7.33718C13.9926 7.39073 13.9999 7.44426 13.9999 7.5C13.9999 9.142 12.6409 10.5 10.9999 10.5C9.35794 10.5 7.99994 9.142 7.99994 7.5C8.00518 6.70597 8.32293 5.94595 8.88441 5.38447C9.44589 4.82299 10.2059 4.50524 10.9999 4.5C11.0557 4.5 11.1092 4.50734 11.1628 4.51468C11.1976 4.51946 11.2325 4.52424 11.2679 4.527C11.1029 4.817 10.9999 5.146 10.9999 5.5Z" fill="#C0C0C0"/>
<path fill-rule="evenodd" clip-rule="evenodd" d="M1.05198 7.184C1.07298 7.117 3.36698 0.5 11 0.5C18.633 0.5 20.927 7.117 20.949 7.184L21.054 7.5L20.948 7.816C20.927 7.883 18.633 14.5 11 14.5C3.36698 14.5 1.07298 7.883 1.05098 7.816L0.945984 7.5L1.05198 7.184ZM3.07398 7.5C3.57598 8.654 5.64898 12.5 11 12.5C16.348 12.5 18.422 8.658 18.926 7.5C18.424 6.346 16.351 2.5 11 2.5C5.65198 2.5 3.57798 6.342 3.07398 7.5Z" fill="#C0C0C0"/>
</svg>
