<svg width="20" height="19" viewBox="0 0 20 19" fill="none" xmlns="http://www.w3.org/2000/svg">
<path fill-rule="evenodd" clip-rule="evenodd" d="M9.99998 1.59511C8.91038 0.593213 7.48419 0.0371559 6.00398 0.0371094C5.22052 0.0379251 4.44495 0.193669 3.72192 0.495378C2.99888 0.797087 2.34265 1.2388 1.79098 1.79511C-0.562019 4.15811 -0.561019 7.85411 1.79298 10.2071L9.12498 17.5391C9.29498 17.8381 9.62298 18.0311 9.99998 18.0311C10.1548 18.0296 10.3071 17.9918 10.4446 17.9208C10.5822 17.8498 10.7011 17.7475 10.792 17.6221L18.207 10.2071C20.561 7.85311 20.561 4.15811 18.205 1.79111C17.6536 1.23583 16.9979 0.795006 16.2756 0.493993C15.5532 0.192979 14.7785 0.037709 13.996 0.0371094C12.5158 0.0373513 11.0897 0.593382 9.99998 1.59511ZM16.791 3.20511C18.354 4.77611 18.355 7.23011 16.793 8.79311L9.99998 15.5861L3.20698 8.79311C1.64498 7.23011 1.64598 4.77611 3.20498 3.20911C3.96498 2.45311 4.95898 2.03711 6.00398 2.03711C7.04898 2.03711 8.03898 2.45311 8.79298 3.20711L9.29298 3.70711C9.38577 3.80006 9.49597 3.87379 9.61729 3.9241C9.7386 3.97441 9.86865 4.00031 9.99998 4.00031C10.1313 4.00031 10.2614 3.97441 10.3827 3.9241C10.504 3.87379 10.6142 3.80006 10.707 3.70711L11.207 3.20711C12.719 1.69811 15.281 1.70211 16.791 3.20511Z" fill="#C0C0C0"/>
</svg>
