<svg width="209" height="35" viewBox="0 0 209 35" fill="none" xmlns="http://www.w3.org/2000/svg">
<path fill-rule="evenodd" clip-rule="evenodd" d="M35.2104 17.5C35.2104 7.83487 27.3752 0 17.7101 0C8.04524 0 0.210083 7.83487 0.210083 17.5C0.210083 27.1651 8.04524 35 17.7101 35C27.3752 35 35.2104 27.1651 35.2104 17.5ZM15.4823 11.8266H16.9649C17.1197 11.8122 17.2746 11.8053 17.4333 11.7982C17.5786 11.7918 17.7271 11.7851 17.8816 11.7725C17.8549 12.1774 17.9354 12.6627 18.1243 13.2286C18.34 13.7948 18.61 14.4142 18.9061 15.0612L21.197 19.6446C21.6298 20.5676 22.0696 21.5016 22.5467 22.4018H22.6005C23.1321 21.5323 23.5428 20.6599 23.97 19.7523C24.0248 19.6359 24.0798 19.519 24.1354 19.4014L26.0232 15.6009C26.2903 15.0501 26.5262 14.5504 26.7375 14.1028L26.7385 14.1006C26.8681 13.8262 26.9883 13.5714 27.1009 13.3365C27.3436 12.7433 27.5055 12.23 27.5325 11.7725C27.6864 11.7842 27.8249 11.7907 27.9525 11.7967C28.1146 11.8043 28.2591 11.8111 28.3952 11.8266H29.8507C30.005 11.8122 30.1668 11.8053 30.3321 11.7983C30.4842 11.7918 30.6393 11.7852 30.7944 11.7725C30.8482 11.8266 30.8755 11.9071 30.8755 11.9884C30.902 12.123 30.8755 12.2038 30.8212 12.2579L30.4163 12.2852C29.985 12.3384 29.6621 12.42 29.4729 12.5279C29.2848 12.6627 29.1502 12.8781 29.0953 13.1202C29.0413 13.3902 29.0148 13.7405 29.0148 14.1988V16.7608C29.0272 17.2144 29.0456 17.6798 29.0645 18.1572C29.086 18.7001 29.1081 19.2591 29.1226 19.8336C29.1488 20.8387 29.1864 21.8579 29.2416 22.8608C29.2416 23.1842 29.2686 23.4821 29.2962 23.7245C29.3232 23.9405 29.4316 24.1026 29.5651 24.2372C29.7008 24.3721 29.9167 24.4532 30.2137 24.481L30.8619 24.5348C30.9156 24.6156 30.9424 24.6961 30.9156 24.8048C30.9156 24.9127 30.8892 24.9935 30.8081 25.0475C30.4021 25.0208 29.9972 24.9935 29.5929 24.9661H27.2705C27.032 24.9822 26.784 24.9983 26.5382 25.0143C26.3666 25.0254 26.1959 25.0365 26.0297 25.0475C25.9484 24.9661 25.921 24.8859 25.921 24.8048C25.8943 24.67 25.921 24.588 25.9751 24.5348L26.5692 24.481C26.92 24.4532 27.1356 24.3997 27.2443 24.2651C27.4295 24.1709 27.4839 23.9877 27.5055 23.7948C27.5325 23.5518 27.5587 23.2298 27.5325 22.799L27.4779 14.4682H27.4506C27.3971 14.5493 27.2895 14.7647 27.155 15.0885C26.9928 15.3849 26.8044 15.7355 26.6155 16.1127C26.4697 16.3832 26.3564 16.6379 26.25 16.8769C26.2188 16.9471 26.1882 17.016 26.1575 17.0835L24.4052 20.5611C23.8037 21.6632 23.2711 22.7578 22.7604 23.9038C22.5655 24.2924 22.3905 24.699 22.223 25.1007C22.1188 25.2034 21.9487 25.206 21.8448 25.1007C21.8281 25.043 21.677 24.5462 21.6554 24.5462C21.5717 24.3197 21.473 24.079 21.3589 23.8221C21.2104 23.489 21.0499 23.1561 20.8851 22.8143C20.8099 22.6584 20.7338 22.5006 20.6576 22.3401C20.4425 21.855 20.2544 21.4507 20.0917 21.1261L18.2853 17.2724C18.0781 16.8306 17.8706 16.3639 17.6627 15.8961L17.6389 15.8427C17.4503 15.3306 17.2343 14.8723 17.0184 14.4142H16.9649C16.9455 14.8273 16.9268 15.2408 16.908 15.6539L16.9078 15.6593C16.8997 15.8374 16.8917 16.0154 16.8835 16.1932C16.87 16.4996 16.8487 16.8061 16.8276 17.1089C16.8079 17.3922 16.7884 17.6723 16.7757 17.9458C16.7493 18.5655 16.7222 19.2941 16.6952 20.1297C16.6768 20.7108 16.6662 21.2915 16.6557 21.8723C16.6511 22.1271 16.6464 22.3818 16.6411 22.6366C16.6329 23.0391 16.6363 23.6875 16.7956 24.0708C16.836 24.1624 16.8904 24.2375 16.9581 24.2924C17.0927 24.3997 17.2816 24.4532 17.5251 24.481L18.2805 24.5348C18.3621 24.6156 18.3889 24.6961 18.3889 24.8048C18.3889 24.9127 18.3351 24.9935 18.2537 25.0475C17.93 25.0208 17.5786 24.9935 17.1743 24.9661H15.041C14.8846 24.9783 14.7329 24.9905 14.5824 25.0027C14.3955 25.0177 14.2095 25.0327 14.0154 25.0475C13.9343 24.9661 13.9076 24.8859 13.9076 24.8048C13.8802 24.67 13.9076 24.588 13.9881 24.5348L14.4205 24.481C14.69 24.4532 14.9065 24.3721 15.0957 24.2924C15.2576 24.2105 15.3918 24.0753 15.4732 23.8597C15.8113 22.9627 15.9315 20.0139 15.9875 18.6405L15.9939 18.4855L16.0001 18.3901C16.0523 17.5878 16.1028 16.8112 16.1293 16.0584C16.1563 15.2765 16.1825 14.6031 16.2101 14.0372C16.2368 13.6324 16.2101 13.3094 16.1563 13.0667C16.1017 12.8241 15.9674 12.6351 15.7794 12.5279C15.5896 12.4462 15.2931 12.3651 14.8897 12.2852L14.5665 12.2579C14.5116 12.1774 14.4848 12.0966 14.5116 11.9884C14.5386 11.8809 14.5665 11.799 14.647 11.7725C14.7855 11.7849 14.924 11.7915 15.057 11.7978C15.2086 11.805 15.3531 11.8119 15.4823 11.8266ZM4.13971 12.0343C4.11269 12.1438 4.16788 12.226 4.25039 12.3091L4.96508 12.3905C5.26695 12.4189 5.48716 12.5008 5.62429 12.6386C5.76143 12.7481 5.84451 12.941 5.87153 13.2429C5.89942 13.545 5.92645 13.9857 5.92645 14.5618V18.6292C6.47612 18.6568 7.02551 18.6568 7.57576 18.6292V13.0229C7.54816 12.8033 7.57576 12.6386 7.63038 12.5008C7.6577 12.4189 7.7678 12.3353 7.90494 12.3091C8.06995 12.2815 8.34536 12.2815 8.70242 12.2815C9.74629 12.3091 10.5435 12.5834 11.1205 13.1606C11.6702 13.7371 11.9447 14.5345 11.9447 15.5246C11.9732 16.4035 11.753 17.1455 11.2858 17.7495C10.8735 18.2727 10.2689 18.6568 9.44414 18.8491C8.64751 19.0418 7.52085 19.1243 6.00895 19.0961C4.68967 19.0702 3.26086 18.9871 1.69434 18.8224C3.42616 19.1795 4.71727 19.4264 5.54236 19.5086C6.88809 19.6745 8.20737 19.6461 9.44414 19.4546C10.076 19.3712 10.6533 19.2071 11.1757 19.0147C11.6702 18.7951 12.1652 18.4927 12.6873 18.1347C12.9894 17.9154 13.2643 17.5569 13.5121 17.0906C13.7047 16.6507 13.8142 16.1287 13.8413 15.4962C13.8142 14.8088 13.6492 14.2056 13.3474 13.6827C13.0446 13.1606 12.6873 12.7481 12.2198 12.4468C11.753 12.1714 11.1757 11.9509 10.5162 11.8135C9.884 11.7039 9.14171 11.6487 8.29016 11.6487C7.46537 11.6487 6.72336 11.6487 6.06415 11.6761C5.40437 11.7039 4.79978 11.7312 4.27713 11.7862C4.19519 11.8416 4.13971 11.9239 4.13971 12.0343ZM5.82146 23.6412C5.87637 23.2833 5.9034 22.7606 5.9034 22.0741L5.92645 20.0859C6.42149 20.1681 6.97089 20.196 7.57576 20.1681V22.0934C7.54816 22.7791 7.57576 23.3009 7.63038 23.6582C7.68046 23.9854 7.79967 24.1965 7.96611 24.3348C7.97578 24.3425 7.98574 24.3499 7.9957 24.357C8.16071 24.4947 8.46315 24.5772 8.90357 24.6057L9.4541 24.6606C9.50958 24.7149 9.53689 24.7983 9.53689 24.9357C9.50958 25.0455 9.48113 25.128 9.42622 25.1829L9.41329 25.1823C8.50971 25.1399 7.6639 25.1001 6.75693 25.1001C5.90226 25.1001 5.13209 25.13 4.28026 25.1829C4.1289 25.0831 4.11866 24.794 4.25153 24.6606L4.66464 24.6057C5.30962 24.5613 5.76712 24.3342 5.82146 23.6412Z" fill="#C0C0C0"/>
<path d="M48.4646 26.0442C48.9319 26.0961 49.3732 26.1826 49.7886 26.3038C50.204 26.4076 50.5934 26.5288 50.9569 26.6673V27.4201H43.8434V26.6673C44.1896 26.4942 44.5444 26.3644 44.9078 26.2778C45.2713 26.1913 45.6261 26.1134 45.9723 26.0442V10.6489C45.5742 10.5797 45.2021 10.4932 44.8559 10.3893C44.5098 10.2682 44.1723 10.1384 43.8434 9.99989V9.247H46.18C46.8723 9.247 47.6252 9.21239 48.4386 9.14316C49.2521 9.07393 50.0309 9.03931 50.7752 9.03931C51.6232 9.03931 52.454 9.1345 53.2675 9.32489C54.0809 9.49797 54.7992 9.80085 55.4223 10.2335C56.0627 10.6662 56.5733 11.246 56.954 11.973C57.3521 12.6826 57.5511 13.5739 57.5511 14.647C57.5511 15.6682 57.3521 16.5422 56.954 17.2691C56.556 17.9961 56.0194 18.5932 55.3444 19.0605C54.6867 19.5278 53.9338 19.874 53.0857 20.099C52.2377 20.3067 51.3636 20.4105 50.4636 20.4105C50.3771 20.4105 50.2386 20.4105 50.0482 20.4105C49.8752 20.4105 49.6848 20.4105 49.4771 20.4105C49.2694 20.3932 49.0704 20.3759 48.88 20.3586C48.6896 20.3413 48.5511 20.324 48.4646 20.3067V26.0442ZM50.23 10.3893C49.8146 10.3893 49.4771 10.398 49.2175 10.4153C48.9579 10.4326 48.7069 10.4672 48.4646 10.5191V18.9307C48.5511 18.9653 48.6723 18.9913 48.828 19.0086C49.0011 19.0086 49.1742 19.0172 49.3473 19.0345C49.5377 19.0518 49.7194 19.0605 49.8925 19.0605C50.0655 19.0605 50.204 19.0605 50.3079 19.0605C50.9136 19.0605 51.4848 18.9826 52.0213 18.8268C52.5579 18.6538 53.0252 18.3855 53.4232 18.022C53.8386 17.6586 54.1675 17.1999 54.4098 16.6461C54.6521 16.0922 54.7733 15.4259 54.7733 14.647C54.7733 13.2278 54.3665 12.1634 53.5531 11.4537C52.7569 10.7441 51.6492 10.3893 50.23 10.3893Z" fill="#C0C0C0"/>
<path d="M69.3489 25.6028C69.2104 25.8971 68.9941 26.174 68.6998 26.4336C68.4056 26.6932 68.0681 26.9182 67.6873 27.1086C67.3066 27.299 66.8912 27.4461 66.4412 27.55C65.9912 27.6711 65.5325 27.7317 65.0652 27.7317C64.0441 27.7317 63.1441 27.5759 62.3652 27.2644C61.5864 26.9355 60.9373 26.4769 60.4181 25.8884C59.8988 25.2826 59.5008 24.5644 59.2238 23.7336C58.9642 22.9028 58.8344 21.9682 58.8344 20.9297C58.8344 18.7143 59.345 17.0268 60.3662 15.8672C61.3873 14.7076 62.8325 14.1278 64.7018 14.1278C65.3075 14.1278 65.9046 14.2143 66.4931 14.3874C67.0816 14.5432 67.6008 14.8114 68.0508 15.1922C68.5181 15.573 68.8902 16.0836 69.1672 16.724C69.4614 17.347 69.6085 18.1259 69.6085 19.0605C69.6085 19.3547 69.5912 19.6576 69.5566 19.9692C69.5393 20.2634 69.496 20.5836 69.4268 20.9297H61.3267C61.3267 21.6567 61.4133 22.3403 61.5864 22.9807C61.7767 23.6038 62.0537 24.149 62.4171 24.6163C62.7806 25.0836 63.2392 25.4557 63.7931 25.7326C64.3469 25.9923 64.996 26.1221 65.7402 26.1221C66.346 26.1221 66.9604 26.0355 67.5835 25.8624C68.2066 25.6894 68.6739 25.4644 68.9854 25.1874L69.3489 25.6028ZM64.5979 15.2701C63.6114 15.2701 62.8585 15.6076 62.3392 16.2826C61.82 16.9403 61.5085 18.1086 61.4046 19.7874H67.1162C67.1335 19.6317 67.1421 19.4845 67.1421 19.3461C67.1594 19.1903 67.1681 19.0432 67.1681 18.9047C67.1681 17.797 66.9604 16.9143 66.545 16.2566C66.1296 15.5989 65.4806 15.2701 64.5979 15.2701Z" fill="#C0C0C0"/>
<path d="M77.1615 16.3865C76.9711 16.4903 76.7288 16.7066 76.4346 17.0355C76.1577 17.347 75.9067 17.8143 75.6817 18.4374V26.148C76.0278 26.1826 76.374 26.2519 76.7202 26.3557C77.0663 26.4423 77.4125 26.5807 77.7586 26.7711V27.4201H71.6317V26.7711C71.9432 26.598 72.2374 26.4682 72.5144 26.3817C72.7913 26.2951 73.0682 26.2173 73.3451 26.148V15.9451L71.6317 15.7374V15.0624C72.1855 14.8201 72.7567 14.6297 73.3451 14.4913C73.9336 14.3355 74.4961 14.2143 75.0327 14.1278H75.6817V16.8797H75.7855C75.9413 16.5336 76.1577 16.1874 76.4346 15.8413C76.7288 15.4951 77.0577 15.1836 77.4211 14.9066C77.8019 14.6297 78.2086 14.422 78.6413 14.2836C79.0913 14.1278 79.55 14.0759 80.0173 14.1278C80.1384 14.3528 80.2423 14.6038 80.3288 14.8807C80.4327 15.1403 80.5279 15.4172 80.6144 15.7114V16.3865H77.1615Z" fill="#C0C0C0"/>
<path d="M88.7349 7.897C88.8907 7.897 89.0724 7.90565 89.2801 7.92296C89.4878 7.94027 89.7041 7.96623 89.9291 8.00085C90.1542 8.01815 90.3705 8.05277 90.5782 8.10469C90.7859 8.13931 90.9676 8.18258 91.1234 8.2345C91.0715 8.80566 90.9936 9.3422 90.8897 9.84412C90.8032 10.3287 90.6907 10.7701 90.5522 11.1682H89.9032L88.7609 8.93547C88.2589 8.93547 87.8263 8.98739 87.4628 9.09124C87.1166 9.19508 86.8224 9.39412 86.5801 9.68835C86.3551 9.98258 86.182 10.4066 86.0609 10.9605C85.957 11.5143 85.9051 12.2412 85.9051 13.1412V14.4393H88.8907V15.7374H85.9051V26.148C86.8051 26.2519 87.6359 26.4596 88.3974 26.7711V27.4201H81.8551V26.7711C82.3916 26.4596 82.9628 26.2519 83.5686 26.148V15.7374H81.5955V15.0624C82.2012 14.6816 82.8589 14.3961 83.5686 14.2057V13.297C83.5686 12.2239 83.6984 11.3412 83.958 10.6489C84.2176 9.93931 84.5811 9.38547 85.0484 8.98739C85.5157 8.572 86.0609 8.28642 86.6839 8.13066C87.3243 7.97488 88.008 7.897 88.7349 7.897Z" fill="#C0C0C0"/>
<path d="M100.787 25.6028C100.648 25.8971 100.432 26.174 100.138 26.4336C99.8435 26.6932 99.506 26.9182 99.1253 27.1086C98.7445 27.299 98.3291 27.4461 97.8791 27.55C97.4291 27.6711 96.9704 27.7317 96.5031 27.7317C95.482 27.7317 94.582 27.5759 93.8031 27.2644C93.0243 26.9355 92.3752 26.4769 91.856 25.8884C91.3368 25.2826 90.9387 24.5644 90.6618 23.7336C90.4021 22.9028 90.2723 21.9682 90.2723 20.9297C90.2723 18.7143 90.7829 17.0268 91.8041 15.8672C92.8252 14.7076 94.2704 14.1278 96.1397 14.1278C96.7454 14.1278 97.3425 14.2143 97.931 14.3874C98.5195 14.5432 99.0387 14.8114 99.4887 15.1922C99.956 15.573 100.328 16.0836 100.605 16.724C100.899 17.347 101.046 18.1259 101.046 19.0605C101.046 19.3547 101.029 19.6576 100.994 19.9692C100.977 20.2634 100.934 20.5836 100.865 20.9297H92.7646C92.7646 21.6567 92.8512 22.3403 93.0243 22.9807C93.2147 23.6038 93.4916 24.149 93.855 24.6163C94.2185 25.0836 94.6772 25.4557 95.231 25.7326C95.7849 25.9923 96.4339 26.1221 97.1781 26.1221C97.7839 26.1221 98.3983 26.0355 99.0214 25.8624C99.6445 25.6894 100.112 25.4644 100.423 25.1874L100.787 25.6028ZM96.0358 15.2701C95.0493 15.2701 94.2964 15.6076 93.7771 16.2826C93.2579 16.9403 92.9464 18.1086 92.8425 19.7874H98.5541C98.5714 19.6317 98.58 19.4845 98.58 19.3461C98.5974 19.1903 98.606 19.0432 98.606 18.9047C98.606 17.797 98.3983 16.9143 97.9829 16.2566C97.5676 15.5989 96.9185 15.2701 96.0358 15.2701Z" fill="#C0C0C0"/>
<path d="M113.35 25.6028C113.039 26.2086 112.528 26.7192 111.819 27.1346C111.126 27.5326 110.313 27.7317 109.378 27.7317C108.357 27.7317 107.466 27.5759 106.704 27.2644C105.96 26.9355 105.337 26.4769 104.835 25.8884C104.333 25.2826 103.952 24.5644 103.693 23.7336C103.45 22.8855 103.329 21.9509 103.329 20.9297C103.329 18.7317 103.866 17.0528 104.939 15.8932C106.012 14.7163 107.474 14.1278 109.326 14.1278C110.174 14.1278 110.927 14.2057 111.585 14.3614C112.26 14.4999 112.831 14.6903 113.298 14.9326C113.247 15.5038 113.151 16.1441 113.013 16.8538C112.874 17.5634 112.701 18.1518 112.494 18.6192H111.793L110.702 15.5297C110.581 15.4432 110.443 15.3826 110.287 15.348C110.131 15.2961 109.872 15.2701 109.508 15.2701C108.331 15.2701 107.422 15.7028 106.782 16.5682C106.142 17.4163 105.822 18.8615 105.822 20.9038C105.822 21.5615 105.908 22.2019 106.081 22.8249C106.272 23.448 106.548 24.0105 106.912 24.5124C107.293 24.9971 107.76 25.3865 108.314 25.6807C108.885 25.9749 109.543 26.1221 110.287 26.1221C110.893 26.1221 111.421 26.0355 111.871 25.8624C112.321 25.6894 112.701 25.4817 113.013 25.2394L113.35 25.6028Z" fill="#C0C0C0"/>
<path d="M114.722 15.0624C115.38 14.647 116.072 14.3528 116.799 14.1797V11.973C117.024 11.7826 117.284 11.6182 117.578 11.4797C117.89 11.3239 118.192 11.1768 118.487 11.0384H119.136V14.4393H123.03V15.7374H119.136V23.2663C119.136 24.3047 119.3 25.0403 119.629 25.473C119.958 25.9057 120.451 26.1221 121.109 26.1221C121.42 26.1221 121.81 26.1048 122.277 26.0701C122.744 26.0182 123.143 25.9317 123.471 25.8105L123.653 26.1999C123.515 26.3557 123.316 26.5201 123.056 26.6932C122.814 26.8663 122.528 27.0307 122.199 27.1865C121.888 27.3423 121.542 27.4721 121.161 27.5759C120.78 27.6798 120.391 27.7317 119.993 27.7317C118.954 27.7317 118.158 27.4375 117.604 26.849C117.067 26.2605 116.799 25.3086 116.799 23.9932V15.7374H114.722V15.0624Z" fill="#C0C0C0"/>
<path d="M152.01 27.4201H145.571V26.6673C145.918 26.5288 146.264 26.4163 146.61 26.3298C146.956 26.2259 147.311 26.1307 147.674 26.0442V14.3614L147.778 11.3239H147.57L146.714 14.1018L141.392 27.4201H140.717L135.654 14.1018L134.719 11.0643H134.486L134.512 14.3614V26.0442C134.841 26.1134 135.169 26.1999 135.498 26.3038C135.827 26.4076 136.156 26.5288 136.485 26.6673V27.4201H131.059V26.6673C131.388 26.5288 131.725 26.4076 132.071 26.3038C132.435 26.1826 132.798 26.0874 133.162 26.0182V10.6489C132.798 10.5797 132.435 10.4932 132.071 10.3893C131.725 10.2682 131.379 10.1384 131.033 9.99989V9.247H136.355L140.872 21.1115L141.755 23.7855H141.781L142.664 21.0595L147.337 9.247H152.036V9.99989C151.724 10.1384 151.404 10.2682 151.075 10.3893C150.746 10.4932 150.409 10.5797 150.063 10.6489V26.0701C150.426 26.1394 150.764 26.2259 151.075 26.3298C151.404 26.4163 151.716 26.5288 152.01 26.6673V27.4201Z" fill="#C0C0C0"/>
<path d="M153.858 20.9297C153.858 19.8393 153.997 18.8788 154.273 18.048C154.568 17.1999 154.983 16.4903 155.52 15.9191C156.056 15.3307 156.697 14.8893 157.441 14.5951C158.202 14.2836 159.042 14.1278 159.959 14.1278C161.032 14.1278 161.958 14.2922 162.737 14.6211C163.516 14.9499 164.147 15.4172 164.632 16.023C165.134 16.6115 165.498 17.3211 165.723 18.1518C165.965 18.9826 166.086 19.9086 166.086 20.9297C166.086 23.1105 165.532 24.7894 164.424 25.9663C163.317 27.1432 161.828 27.7317 159.959 27.7317C158.921 27.7317 158.021 27.5759 157.259 27.2644C156.497 26.9355 155.866 26.4769 155.364 25.8884C154.862 25.2826 154.481 24.5644 154.222 23.7336C153.979 22.8855 153.858 21.9509 153.858 20.9297ZM156.35 20.9297C156.35 21.7086 156.42 22.4442 156.558 23.1365C156.714 23.8288 156.947 24.4346 157.259 24.9538C157.588 25.4557 158.012 25.8538 158.531 26.148C159.05 26.4423 159.673 26.5894 160.4 26.5894C161.335 26.5894 162.097 26.1307 162.685 25.2134C163.291 24.2961 163.594 22.8682 163.594 20.9297C163.594 20.1336 163.516 19.398 163.36 18.723C163.222 18.0307 162.997 17.4336 162.685 16.9316C162.373 16.4124 161.975 16.0057 161.491 15.7114C161.006 15.4172 160.426 15.2701 159.751 15.2701C158.73 15.2701 157.908 15.7288 157.285 16.6461C156.662 17.5634 156.35 18.9913 156.35 20.9297Z" fill="#C0C0C0"/>
<path d="M182.123 27.4201H176.542V26.7711C177.009 26.5288 177.519 26.3211 178.073 26.148V19.9951C178.073 18.6797 177.883 17.6413 177.502 16.8797C177.121 16.1182 176.429 15.7374 175.425 15.7374C174.993 15.7374 174.586 15.8153 174.205 15.9711C173.842 16.1268 173.513 16.3432 173.219 16.6201C172.942 16.8797 172.699 17.1826 172.492 17.5288C172.284 17.8576 172.119 18.2038 171.998 18.5672V26.148C172.535 26.2519 173.054 26.4596 173.556 26.7711V27.4201H167.948V26.7711C168.381 26.5461 168.952 26.3384 169.662 26.148V15.9451L167.948 15.7374V15.0624C168.398 14.872 168.918 14.6989 169.506 14.5432C170.094 14.3874 170.709 14.2489 171.349 14.1278H171.998V17.0355H172.024C172.388 16.2393 172.907 15.5557 173.582 14.9845C174.274 14.4134 175.105 14.1278 176.074 14.1278C176.767 14.1278 177.381 14.2143 177.918 14.3874C178.471 14.5432 178.93 14.8288 179.294 15.2441C179.657 15.6595 179.934 16.222 180.124 16.9316C180.315 17.624 180.41 18.5067 180.41 19.5797V26.148C181.102 26.2692 181.673 26.4769 182.123 26.7711V27.4201Z" fill="#C0C0C0"/>
<path d="M194.137 25.6028C193.999 25.8971 193.782 26.174 193.488 26.4336C193.194 26.6932 192.856 26.9182 192.476 27.1086C192.095 27.299 191.679 27.4461 191.229 27.55C190.779 27.6711 190.321 27.7317 189.853 27.7317C188.832 27.7317 187.932 27.5759 187.153 27.2644C186.375 26.9355 185.726 26.4769 185.206 25.8884C184.687 25.2826 184.289 24.5644 184.012 23.7336C183.752 22.9028 183.623 21.9682 183.623 20.9297C183.623 18.7143 184.133 17.0268 185.154 15.8672C186.176 14.7076 187.621 14.1278 189.49 14.1278C190.096 14.1278 190.693 14.2143 191.281 14.3874C191.87 14.5432 192.389 14.8114 192.839 15.1922C193.306 15.573 193.678 16.0836 193.955 16.724C194.25 17.347 194.397 18.1259 194.397 19.0605C194.397 19.3547 194.379 19.6576 194.345 19.9692C194.327 20.2634 194.284 20.5836 194.215 20.9297H186.115C186.115 21.6567 186.201 22.3403 186.375 22.9807C186.565 23.6038 186.842 24.149 187.205 24.6163C187.569 25.0836 188.027 25.4557 188.581 25.7326C189.135 25.9923 189.784 26.1221 190.528 26.1221C191.134 26.1221 191.749 26.0355 192.372 25.8624C192.995 25.6894 193.462 25.4644 193.774 25.1874L194.137 25.6028ZM189.386 15.2701C188.4 15.2701 187.647 15.6076 187.127 16.2826C186.608 16.9403 186.297 18.1086 186.193 19.7874H191.904C191.922 19.6317 191.93 19.4845 191.93 19.3461C191.948 19.1903 191.956 19.0432 191.956 18.9047C191.956 17.797 191.749 16.9143 191.333 16.2566C190.918 15.5989 190.269 15.2701 189.386 15.2701Z" fill="#C0C0C0"/>
<path d="M196.249 15.7374C195.989 15.6682 195.747 15.5816 195.522 15.4778C195.314 15.3739 195.098 15.2528 194.873 15.1143V14.4393H200.299V15.0884C199.936 15.3307 199.442 15.547 198.819 15.7374L202.142 23.4221L202.636 25.0317H202.688L203.077 23.3961L205.543 15.7374C205.024 15.6336 204.548 15.4259 204.115 15.1143V14.4393H208.555V15.1143C208.191 15.3566 207.698 15.5643 207.075 15.7374L203.025 27.4201C202.61 28.5278 202.212 29.4192 201.831 30.0942C201.467 30.7865 201.095 31.3317 200.715 31.7298C200.351 32.1278 199.97 32.4134 199.572 32.5865C199.191 32.7769 198.776 32.9154 198.326 33.0019C198.136 32.673 197.963 32.3096 197.807 31.9115C197.668 31.5134 197.547 31.1327 197.443 30.7692L197.781 30.1461H200.481C200.585 30.0077 200.671 29.8692 200.74 29.7307C200.827 29.6096 200.914 29.4538 201 29.2634C201.087 29.073 201.182 28.8307 201.286 28.5365C201.39 28.2423 201.511 27.8701 201.649 27.4201L196.249 15.7374Z" fill="#C0C0C0"/>
</svg>
