<svg width="103" height="35" viewBox="0 0 103 35" fill="none" xmlns="http://www.w3.org/2000/svg">
<path d="M54.6767 10.2142V13.2399H49.7854V25.2292H45.8724V13.2399H40.9584V10.2142H54.6767Z" fill="#C0C0C0"/>
<path d="M63.8522 10.2142C65.6419 10.2142 67.0296 10.6312 68.0154 11.4654C69.0164 12.2996 69.5169 13.4219 69.5169 14.8324C69.5169 15.9548 69.2515 16.8799 68.7207 17.6079C68.205 18.3207 67.4619 18.844 66.4912 19.1777L70.4042 25.2292H66.0817L62.8739 19.7464H60.5307V25.2292H56.6859V10.2142H63.8522ZM63.3062 16.9709C64.0645 16.9709 64.6333 16.8193 65.0124 16.5159C65.3916 16.2126 65.5812 15.7272 65.5812 15.0599C65.5812 13.8011 64.8229 13.1717 63.3062 13.1717H60.5307V16.9709H63.3062Z" fill="#C0C0C0"/>
<path d="M78.722 9.98667C80.2386 9.98667 81.543 10.2976 82.635 10.9194C83.7421 11.5261 84.5915 12.4057 85.183 13.5584C85.7745 14.7111 86.0702 16.0988 86.0702 17.7217C86.0702 19.3445 85.7745 20.7322 85.183 21.8849C84.5915 23.0376 83.7421 23.9248 82.635 24.5467C81.543 25.1533 80.2386 25.4567 78.722 25.4567C77.1901 25.4567 75.8706 25.1533 74.7635 24.5467C73.6715 23.9248 72.8297 23.0376 72.2382 21.8849C71.6467 20.7322 71.351 19.3445 71.351 17.7217C71.351 16.0988 71.6467 14.7111 72.2382 13.5584C72.8297 12.4057 73.6715 11.5261 74.7635 10.9194C75.8706 10.2976 77.1901 9.98667 78.722 9.98667ZM78.722 13.0579C77.63 13.0579 76.7958 13.4522 76.2195 14.2409C75.6431 15.0144 75.355 16.1747 75.355 17.7217C75.355 19.2687 75.6431 20.4365 76.2195 21.2252C76.7958 21.9987 77.63 22.3854 78.722 22.3854C79.7988 22.3854 80.6254 21.9987 81.2017 21.2252C81.7781 20.4365 82.0662 19.2687 82.0662 17.7217C82.0662 16.1747 81.7781 15.0144 81.2017 14.2409C80.6254 13.4522 79.7988 13.0579 78.722 13.0579Z" fill="#C0C0C0"/>
<path d="M102.07 10.2142V25.2292H97.7252L93.0614 17.1074L91.9239 14.8779H91.9012L91.9922 17.6534V25.2292H88.5342V10.2142H92.8794L97.5432 18.3359L98.6807 20.5654H98.7034L98.6124 17.7899V10.2142H102.07Z" fill="#C0C0C0"/>
<path fill-rule="evenodd" clip-rule="evenodd" d="M0.139648 17.4129C0.139648 27.1252 8.01465 35 17.6396 35C27.2646 35 35.0521 27.2127 35.1396 17.6754C35.1396 7.87556 27.3521 0.0882204 17.7271 0.000722173C8.01465 -0.086776 0.227148 7.78806 0.139648 17.4129ZM30.1083 13.7976C29.6307 13.3566 29.077 12.819 28.5 12.2587C27.6896 11.4719 26.8331 10.6403 26.0773 9.96948L26.0008 9.91589C25.8734 9.81359 25.7297 9.73337 25.5758 9.67854L24.9925 9.56972C20.9676 8.81871 7.92099 6.38435 7.65262 6.41699C7.57324 6.42811 7.49737 6.45689 7.43058 6.50121L7.35785 6.55863C7.26829 6.64959 7.20027 6.75947 7.15879 6.88019L7.13965 6.92996V7.24386C8.0254 9.71029 10.3263 15.2184 12.4509 20.3042L12.4512 20.3051C14.2472 24.6044 15.9172 28.6021 16.4994 30.2049C16.576 30.4424 16.7217 30.894 16.9932 30.9169H17.0545C17.1999 30.9169 17.8201 30.0977 17.8201 30.0977C17.8201 30.0977 28.9063 16.6534 30.0279 15.2217C30.1731 15.0453 30.3013 14.8556 30.4107 14.6551C30.4676 14.336 30.3528 14.0105 30.1083 13.7976ZM25.3959 11.4395L20.6644 15.3633L28.1713 13.9967L25.3959 11.4395ZM18.8269 15.1068L10.6807 8.43058L23.8608 10.8614L18.8269 15.1068ZM27.8995 15.5126L19.5619 16.8563L18.3675 26.9969L27.8995 15.5126ZM9.57433 9.09667L18.1455 16.3701L16.9052 27.0046L9.57433 9.09667Z" fill="#C0C0C0"/>
</svg>
