<svg width="97" height="35" viewBox="0 0 97 35" fill="none" xmlns="http://www.w3.org/2000/svg">
<path fill-rule="evenodd" clip-rule="evenodd" d="M14.3784 0.0834459C11.6056 0.373297 8.76203 1.51884 6.47648 3.26667C5.8164 3.77145 4.59762 4.9569 3.99388 5.68148C1.40149 8.79235 0.10233 13.0404 0.51022 17.0723C1.09289 22.8328 4.75829 27.7586 10.1034 29.9644C11.7703 30.6523 13.502 31.0339 15.4003 31.1317C16.3757 31.182 16.7962 31.1598 20.2598 30.8753C22.4685 30.6939 25.0186 30.6942 26.0203 30.8758C28.5355 31.3321 30.8772 32.4942 33.257 34.467C33.9223 35.0185 34.1443 35.1071 34.3227 34.892C34.4945 34.6851 34.3509 34.4342 33.5437 33.5312C31.6695 31.4343 29.7024 30.0804 27.3118 29.2418C26.9151 29.1027 25.9234 28.8279 25.108 28.6314C24.2926 28.4348 23.337 28.1798 22.9844 28.0648C20.3954 27.2203 18.6763 25.8078 16.909 23.0726C16.7245 22.787 16.5375 22.5706 16.4934 22.5918C16.3977 22.6377 16.3845 24.7345 16.4756 25.4272L16.5378 25.9004L15.6341 25.8511C14.0156 25.7627 12.7362 25.4244 11.3247 24.7119C9.93145 24.0084 8.529 22.8024 7.64606 21.5483C6.80343 20.3517 6.11924 18.7194 5.86561 17.3012C5.71287 16.4467 5.73194 14.5399 5.90199 13.6782C6.90248 8.60748 11.3736 5.07197 16.4934 5.30324C19.1866 5.42489 21.4388 6.41809 23.3458 8.32516C24.8385 9.81777 25.7061 11.4052 26.1568 13.4682C26.3306 14.2634 26.4389 15.8154 26.3583 16.3533L26.3036 16.7176L24.9974 16.678C22.9028 16.6145 22.1836 16.7876 23.3913 17.0648C24.1818 17.2461 24.7451 17.4428 25.3885 17.7625C27.4293 18.7761 28.6683 20.4595 29.1761 22.9086C29.2526 23.2774 29.3512 23.5794 29.3953 23.5795C29.4394 23.5798 29.7184 23.1003 30.0153 22.5142C32.6655 17.2828 32.1075 11.044 28.5596 6.24243C28.0151 5.50543 26.7052 4.13895 25.9494 3.51942C22.7723 0.914934 18.5157 -0.349046 14.3784 0.0834459ZM46.9049 6.56939C43.5797 6.85162 40.5428 9.07803 39.3162 12.133C38.7762 13.4777 38.7018 13.8953 38.7018 15.5782C38.7018 17.2696 38.7781 17.693 39.3259 19.0364C40.2105 21.2065 42.0955 23.0767 44.2745 23.9463C45.5516 24.4561 46.0849 24.5494 47.7063 24.5471C49.0621 24.5452 49.2573 24.5265 49.9901 24.3285C50.4309 24.2095 51.2048 23.9096 51.7099 23.6622L52.6285 23.2123L53.0722 23.7044L53.5161 24.1965L55.7639 24.1947C58.0814 24.1927 58.2041 24.1763 58.2041 23.8675C58.2041 23.7943 57.5636 23.003 56.7809 22.1091L55.3577 20.4836L55.8201 19.5535C56.4425 18.3016 56.6829 17.3548 56.7379 15.9388C56.769 15.1364 56.7459 14.6624 56.6485 14.1037C55.9083 9.86072 52.4534 6.78832 48.147 6.5435C47.8385 6.52595 47.2796 6.53765 46.9049 6.56939ZM60.1719 7.1418C60.061 7.30014 60.0472 8.23348 60.0472 15.5782C60.0472 22.923 60.061 23.8563 60.1719 24.0147C60.2948 24.1901 60.325 24.1928 62.1696 24.1928C63.7654 24.1928 64.0612 24.1742 64.1685 24.0669C64.2813 23.954 64.2944 23.0712 64.2944 15.5485C64.2944 9.1278 64.2718 7.13338 64.1982 7.05982C64.1288 6.99042 63.5723 6.96365 62.1994 6.96365C60.324 6.96365 60.2949 6.96622 60.1719 7.1418ZM65.8197 7.11864C65.7741 7.2039 65.7368 7.32627 65.7368 7.39062C65.7368 7.65539 71.2854 23.9991 71.407 24.0927C71.5015 24.1653 71.9916 24.1928 73.1949 24.1928C74.633 24.1928 74.8672 24.1754 74.9627 24.0615C75.0231 23.9892 75.7974 21.7841 76.6833 19.1613C77.5691 16.5383 78.3156 14.4276 78.3421 14.4705C78.3687 14.5135 79.1002 16.6554 79.9675 19.2305C80.8349 21.8055 81.5996 23.9754 81.6667 24.0526C81.7756 24.1777 81.9675 24.1928 83.4439 24.1928C84.6467 24.1928 85.1337 24.1654 85.2262 24.0927C85.3532 23.9926 90.8994 7.63463 90.8994 7.36C90.8994 7.28051 90.8427 7.15886 90.7735 7.08955C90.6655 6.9816 90.353 6.96365 88.5822 6.96365C86.7139 6.96365 86.5054 6.97704 86.3978 7.10389C86.3323 7.18106 85.6183 9.40779 84.8111 12.0523C84.0039 14.6967 83.3356 16.8704 83.326 16.8828C83.3165 16.895 82.5769 14.7314 81.6825 12.0746C80.7882 9.41781 80.0023 7.18106 79.9361 7.10389C79.8295 6.9796 79.6453 6.96365 78.3181 6.96365C76.9915 6.96365 76.8064 6.97968 76.6985 7.10389C76.6315 7.18106 75.8454 9.41757 74.9515 12.074C74.0577 14.7304 73.3182 16.8941 73.3082 16.8821C73.2982 16.8702 72.6334 14.7148 71.831 12.0923C71.0286 9.4699 70.32 7.24309 70.2564 7.14396C70.1411 6.96446 70.1313 6.96365 68.0216 6.96365C66.0087 6.96365 65.8986 6.97143 65.8197 7.11864ZM92.438 7.05982C92.3644 7.13338 92.3419 9.13741 92.3419 15.5915C92.3419 23.8494 92.3451 24.0286 92.4968 24.1099C92.5906 24.16 93.3669 24.1928 94.4601 24.1928H96.2685V15.5782V6.96365H94.4013C93.0559 6.96365 92.5073 6.9905 92.438 7.05982ZM49.0401 10.7371C51.527 11.4944 52.9952 14.2353 52.3239 16.8675L52.2235 17.2611L50.2719 17.2826C48.2895 17.3044 48.107 17.3324 48.107 17.6149C48.107 17.6884 48.5247 18.2503 49.0353 18.8633C50.0923 20.1323 50.0869 20.0424 49.1259 20.3572C48.3252 20.6196 47.1138 20.6229 46.2899 20.365C45.2299 20.0333 44.1759 19.1718 43.5812 18.1512C43.4758 17.9701 43.2906 17.5335 43.17 17.181C42.9824 16.6333 42.9497 16.4056 42.9457 15.6183C42.9379 14.0795 43.3792 12.975 44.4205 11.9266C45.0482 11.2947 45.6957 10.9051 46.4728 10.6917C47.1076 10.5174 48.3936 10.5402 49.0401 10.7371ZM26.8228 22.2308C26.5671 22.6209 26.8783 23.546 27.4743 24.1681C28.0102 24.7273 28.3134 24.5945 28.3134 23.8004C28.3134 23.2843 28.0495 22.5789 27.7408 22.2702C27.4243 21.9536 27.0158 21.936 26.8228 22.2308ZM23.5224 24.7143C23.2363 24.8386 23.0245 25.2231 23.0245 25.6184C23.0245 25.9962 23.4285 26.6907 23.7968 26.9458C24.1403 27.1838 24.694 27.299 25.057 27.2078C25.382 27.1263 25.7389 26.7726 25.7944 26.4771C25.903 25.8981 25.4199 25.1639 24.6914 24.8009C24.2254 24.5687 23.911 24.5453 23.5224 24.7143Z" fill="#C0C0C0"/>
</svg>
