<svg width="121" height="35" viewBox="0 0 121 35" fill="none" xmlns="http://www.w3.org/2000/svg">
<path d="M51.0173 13.342C52.2587 13.342 53.2713 13.783 54.0553 14.665C54.8557 15.547 55.2558 16.8047 55.2558 18.438C55.2558 19.4343 55.1088 20.3898 54.8148 21.3045C54.5372 22.2192 54.1288 23.0358 53.5898 23.7545C53.0672 24.4568 52.4383 25.0203 51.7033 25.445C50.9683 25.8533 50.1598 26.0575 49.2778 26.0575C48.2978 26.0575 47.4403 25.8043 46.7053 25.298C45.9867 24.7917 45.5293 24.0893 45.3333 23.191L44.6963 25.8125H41.4133L45.4803 8.197H48.8368L47.1463 15.5225C47.5383 14.8692 48.0692 14.3465 48.7388 13.9545C49.4248 13.5462 50.1843 13.342 51.0173 13.342ZM48.5428 23.485C49.2125 23.485 49.8005 23.2563 50.3068 22.799C50.8132 22.3417 51.2133 21.7537 51.5073 21.035C51.8013 20.3 51.9483 19.5323 51.9483 18.732C51.9483 17.801 51.7278 17.0987 51.2868 16.625C50.8458 16.1513 50.266 15.9145 49.5473 15.9145C48.8613 15.9145 48.257 16.1432 47.7343 16.6005C47.228 17.0578 46.8278 17.6622 46.5338 18.4135C46.2562 19.1485 46.1173 19.9407 46.1173 20.79C46.1173 21.6067 46.3215 22.26 46.7298 22.75C47.1382 23.24 47.7425 23.485 48.5428 23.485Z" fill="#C0C0C0"/>
<path d="M61.4344 11.7985C60.8464 11.7985 60.3809 11.6678 60.0379 11.4065C59.6949 11.1288 59.5479 10.7123 59.5969 10.157C59.6459 9.48733 59.8583 8.99733 60.2339 8.687C60.6259 8.36033 61.1404 8.197 61.7774 8.197C62.3981 8.197 62.8718 8.33583 63.1984 8.6135C63.5414 8.89116 63.6884 9.29133 63.6394 9.814C63.5904 10.5163 63.3699 11.0227 62.9779 11.333C62.6023 11.6433 62.0878 11.7985 61.4344 11.7985ZM62.4879 13.5625L59.6459 25.8125H56.2894L59.1314 13.5625H62.4879Z" fill="#C0C0C0"/>
<path d="M68.6214 26.033C67.233 26.033 66.1714 25.6573 65.4364 24.906C64.7014 24.1547 64.4972 23.0522 64.8239 21.5985L66.0979 16.0615H63.7459L64.3339 13.5625H66.6614L67.2739 10.9165L70.8754 9.9365L70.0424 13.5625H73.5459L72.9579 16.0615H69.4544L68.1559 21.574C67.9925 22.26 68.0742 22.7663 68.4009 23.093C68.7439 23.4033 69.2175 23.5585 69.8219 23.5585C70.1975 23.5585 70.516 23.5177 70.7774 23.436C71.055 23.3543 71.3 23.2482 71.5124 23.1175L71.4879 25.396C71.0469 25.641 70.5895 25.8043 70.1159 25.886C69.6422 25.984 69.144 26.033 68.6214 26.033Z" fill="#C0C0C0"/>
<path d="M79.7851 26.033C78.5438 26.033 77.4821 25.7962 76.6001 25.3225C75.7345 24.8325 75.0648 24.171 74.5911 23.338C74.1338 22.4887 73.9051 21.5413 73.9051 20.496C73.9051 19.1403 74.1746 17.9235 74.7136 16.8455C75.2526 15.7675 76.0285 14.9182 77.0411 14.2975C78.0538 13.6605 79.2788 13.342 80.7161 13.342C82.2841 13.342 83.55 13.734 84.5136 14.518C85.4936 15.2857 86.0408 16.2983 86.1551 17.556L82.8721 18.144C82.8558 17.4743 82.668 16.9272 82.3086 16.5025C81.9656 16.0615 81.4103 15.841 80.6426 15.841C79.9566 15.841 79.3523 16.0697 78.8296 16.527C78.3233 16.9843 77.9231 17.5887 77.6291 18.34C77.3515 19.075 77.2126 19.859 77.2126 20.692C77.2126 21.5413 77.4413 22.2355 77.8986 22.7745C78.356 23.2972 79.0093 23.5585 79.8586 23.5585C80.3813 23.5585 80.8631 23.4033 81.3041 23.093C81.7451 22.7827 82.0636 22.3498 82.2596 21.7945L85.3221 22.8235C84.8648 23.8362 84.1461 24.6283 83.1661 25.2C82.2025 25.7553 81.0755 26.033 79.7851 26.033Z" fill="#C0C0C0"/>
<path d="M92.9853 26.033C91.7603 26.033 90.7068 25.788 89.8248 25.298C88.9591 24.808 88.2894 24.1465 87.8158 23.3135C87.3584 22.4805 87.1298 21.5413 87.1298 20.496C87.1298 19.1567 87.3993 17.948 87.9383 16.87C88.4773 15.7757 89.2531 14.9182 90.2658 14.2975C91.2784 13.6605 92.4789 13.342 93.8673 13.342C95.0923 13.342 96.1376 13.587 97.0033 14.077C97.8853 14.5507 98.5549 15.2122 99.0123 16.0615C99.4859 16.8945 99.7228 17.8255 99.7228 18.8545C99.7228 20.2102 99.4533 21.427 98.9143 22.505C98.3753 23.583 97.5994 24.4405 96.5868 25.0775C95.5904 25.7145 94.3899 26.033 92.9853 26.033ZM93.0588 23.5585C93.6958 23.5585 94.2674 23.3298 94.7738 22.8725C95.2801 22.4152 95.6803 21.819 95.9743 21.084C96.2683 20.3327 96.4153 19.5242 96.4153 18.6585C96.4153 17.8255 96.1948 17.1477 95.7538 16.625C95.3291 16.086 94.6758 15.8165 93.7938 15.8165C93.1568 15.8165 92.5851 16.0452 92.0788 16.5025C91.5724 16.9598 91.1723 17.5642 90.8783 18.3155C90.5843 19.0505 90.4373 19.8427 90.4373 20.692C90.4373 21.525 90.6578 22.211 91.0988 22.75C91.5398 23.289 92.1931 23.5585 93.0588 23.5585Z" fill="#C0C0C0"/>
<path d="M105.937 11.7985C105.349 11.7985 104.884 11.6678 104.541 11.4065C104.198 11.1288 104.051 10.7123 104.1 10.157C104.149 9.48733 104.361 8.99733 104.737 8.687C105.129 8.36033 105.643 8.197 106.28 8.197C106.901 8.197 107.375 8.33583 107.701 8.6135C108.044 8.89116 108.191 9.29133 108.142 9.814C108.093 10.5163 107.873 11.0227 107.481 11.333C107.105 11.6433 106.591 11.7985 105.937 11.7985ZM106.991 13.5625L104.149 25.8125H100.792L103.634 13.5625H106.991Z" fill="#C0C0C0"/>
<path d="M107.342 25.8125L110.184 13.5625H113.149L112.806 15.7185C113.23 14.9345 113.818 14.3383 114.57 13.93C115.337 13.5217 116.179 13.3175 117.093 13.3175C117.992 13.3175 118.751 13.5135 119.372 13.9055C119.992 14.2975 120.425 14.861 120.67 15.596C120.915 16.3147 120.923 17.1803 120.695 18.193L118.931 25.8125H115.574L117.265 18.536C117.444 17.7357 117.363 17.1068 117.02 16.6495C116.693 16.1922 116.17 15.9635 115.452 15.9635C114.619 15.9635 113.933 16.2493 113.394 16.821C112.855 17.3763 112.455 18.193 112.193 19.271L110.699 25.8125H107.342Z" fill="#C0C0C0"/>
<path fill-rule="evenodd" clip-rule="evenodd" d="M14.1369 34.4761C23.5131 36.8139 33.0085 31.1084 35.3458 21.7333C37.6833 12.3578 31.9779 2.86091 22.6024 0.52366C13.2291 -1.81359 3.73362 3.89233 1.39739 13.2685C-0.940887 22.6428 4.76461 32.1388 14.1369 34.4761ZM25.9163 14.431C26.1013 12.0836 24.2452 10.9584 21.7684 10.2945L22.3329 7.09264L20.3839 6.74926L19.8344 9.86678C19.322 9.77639 18.7965 9.69421 18.2743 9.61282L18.8279 6.47468L16.8801 6.13122L16.315 9.33206C15.8917 9.26632 15.4758 9.20116 15.0717 9.13012L15.0733 9.12007L12.3854 8.64511L12.0189 10.7268C12.0189 10.7268 13.4629 10.9532 13.4344 10.9753C14.2236 11.1147 14.3998 11.6184 14.405 12.0271L13.7619 15.6747C13.8163 15.6845 13.887 15.6993 13.9656 15.7247L13.908 15.7145C13.8602 15.7061 13.8105 15.6973 13.7596 15.6888L12.858 20.7986C12.7797 21.0409 12.5638 21.4115 12.0121 21.3151C12.0332 21.3416 10.5955 21.065 10.5955 21.065L9.7977 23.3243L12.3341 23.7714C12.6115 23.8207 12.8868 23.8723 13.1584 23.9232L13.1593 23.9234C13.349 23.9589 13.5374 23.9942 13.7245 24.0283L13.1544 27.2668L15.1012 27.6104L15.666 24.4062C16.1987 24.5116 16.7151 24.607 17.2204 24.6956L16.6571 27.8848L18.6063 28.2281L19.1767 24.9956C22.4866 25.3854 24.9254 24.9644 25.7526 21.9375C26.4193 19.5004 25.4489 18.1894 23.6677 17.4149C24.8993 17.0387 25.7838 16.1493 25.9163 14.431ZM16.5068 22.1281C18.0987 22.4316 21.5781 23.095 21.9686 20.8745C22.369 18.6043 19.0045 18.0925 17.3624 17.8428C17.1787 17.8148 17.0166 17.7902 16.8838 17.7667L16.1267 22.0573C16.2356 22.0764 16.3638 22.1008 16.5068 22.1281ZM22.1295 14.6612C21.7731 16.6794 18.8773 16.1196 17.5499 15.8629C17.4295 15.8396 17.3215 15.8188 17.23 15.8026L17.9163 11.9114C18.0276 11.931 18.1636 11.9513 18.3177 11.9742C19.6879 12.1786 22.4931 12.5971 22.1295 14.6612Z" fill="#C0C0C0"/>
</svg>
