<svg width="158" height="35" viewBox="0 0 158 35" fill="none" xmlns="http://www.w3.org/2000/svg">
<path d="M11.1509 0L10.916 0.797609V23.9403L11.1509 24.1746L21.8932 17.8247L11.1509 0Z" fill="#C0C0C0"/>
<path d="M11.1509 0L0.408203 17.8247L11.1509 24.1746L11.1509 12.9418L11.1509 0Z" fill="#C0C0C0"/>
<path d="M11.1509 26.2085L11.0185 26.3699V34.6137L11.1509 35L21.8998 19.8619L11.1509 26.2085Z" fill="#C0C0C0"/>
<path d="M11.1509 35V26.2085L0.408203 19.8619L11.1509 35Z" fill="#C0C0C0"/>
<path d="M11.1509 24.1746L21.8932 17.8247L11.1509 12.9418L11.1509 24.1746Z" fill="#C0C0C0"/>
<path d="M0.408203 17.8247L11.1509 24.1746L11.1509 12.9418L0.408203 17.8247Z" fill="#C0C0C0"/>
<path d="M36.5699 27.374C35.1565 27.374 33.9126 27.0819 32.8384 26.4977C31.783 25.9135 30.9538 25.0748 30.3507 23.9817C29.7476 22.8698 29.4461 21.5506 29.4461 20.024C29.4461 18.4975 29.7382 17.1877 30.3224 16.0946C30.9255 14.9827 31.7453 14.1346 32.7819 13.5504C33.8372 12.9662 35.0434 12.674 36.4003 12.674C37.7761 12.674 38.9446 12.9567 39.9057 13.5221C40.8669 14.0875 41.6019 14.8602 42.1107 15.8402C42.6195 16.8202 42.874 17.9321 42.874 19.176C42.874 19.534 42.8646 19.8638 42.8457 20.1654C42.8269 20.4669 42.7986 20.7213 42.7609 20.9287H32.4144C32.5463 22.2479 32.9703 23.2562 33.6865 23.9535C34.4215 24.6319 35.3638 24.9712 36.5134 24.9712C37.4557 24.9712 38.219 24.7921 38.8032 24.434C39.3874 24.076 39.8492 23.5765 40.1884 22.9358L42.5913 24.0665C42.1013 25.1031 41.3192 25.9135 40.2449 26.4977C39.1895 27.0819 37.9646 27.374 36.5699 27.374ZM36.3438 15.0769C35.3072 15.0769 34.4497 15.3785 33.7713 15.9815C33.1117 16.5846 32.6876 17.461 32.4992 18.6106H39.934C39.8586 17.4798 39.5005 16.6129 38.8597 16.0098C38.219 15.3879 37.3803 15.0769 36.3438 15.0769Z" fill="#C0C0C0"/>
<path d="M55.0695 12.9567V15.3313H50.2072V22.851C50.2072 23.5294 50.3956 24.0383 50.7726 24.3775C51.1495 24.6979 51.6395 24.8581 52.2426 24.8581C52.7703 24.8581 53.2132 24.7827 53.5712 24.6319C53.9481 24.4623 54.2968 24.2362 54.6172 23.9535L55.2957 26.1585C54.8622 26.5354 54.3251 26.8369 53.6843 27.0631C53.0624 27.2704 52.3651 27.374 51.5924 27.374C50.3485 27.374 49.3026 27.0725 48.4545 26.4694C47.6064 25.8475 47.1824 24.811 47.1824 23.3598V15.3313H44.4685V12.9567H47.1824V9.64923L50.2072 8.80115V12.9567H55.0695Z" fill="#C0C0C0"/>
<path d="M57.8889 27.0913V6.59615H60.9137V15.2183C61.3849 14.3325 62.0162 13.6917 62.8078 13.296C63.6181 12.8813 64.5133 12.674 65.4933 12.674C66.4922 12.674 67.3874 12.8719 68.1789 13.2677C68.9893 13.6446 69.6301 14.2288 70.1012 15.0204C70.5724 15.7931 70.808 16.7637 70.808 17.9321V27.0913H67.7831V18.8933C67.7831 17.4798 67.491 16.5092 66.9068 15.9815C66.3414 15.435 65.6253 15.1617 64.7583 15.1617C64.1364 15.1617 63.5333 15.3125 62.9491 15.614C62.3649 15.8967 61.8749 16.3679 61.4791 17.0275C61.1022 17.6683 60.9137 18.5352 60.9137 19.6283V27.0913H57.8889Z" fill="#C0C0C0"/>
<path d="M81.3281 27.374C79.9146 27.374 78.6708 27.0819 77.5965 26.4977C76.5412 25.9135 75.7119 25.0748 75.1088 23.9817C74.5058 22.8698 74.2042 21.5506 74.2042 20.024C74.2042 18.4975 74.4963 17.1877 75.0806 16.0946C75.6837 14.9827 76.5035 14.1346 77.54 13.5504C78.5954 12.9662 79.8015 12.674 81.1585 12.674C82.5342 12.674 83.7027 12.9567 84.6638 13.5221C85.625 14.0875 86.36 14.8602 86.8688 15.8402C87.3777 16.8202 87.6321 17.9321 87.6321 19.176C87.6321 19.534 87.6227 19.8638 87.6038 20.1654C87.585 20.4669 87.5567 20.7213 87.519 20.9287H77.1725C77.3044 22.2479 77.7285 23.2562 78.4446 23.9535C79.1796 24.6319 80.1219 24.9712 81.2715 24.9712C82.2138 24.9712 82.9771 24.7921 83.5613 24.434C84.1456 24.076 84.6073 23.5765 84.9465 22.9358L87.3494 24.0665C86.8594 25.1031 86.0773 25.9135 85.0031 26.4977C83.9477 27.0819 82.7227 27.374 81.3281 27.374ZM81.1019 15.0769C80.0654 15.0769 79.2079 15.3785 78.5294 15.9815C77.8698 16.5846 77.4458 17.461 77.2573 18.6106H84.6921C84.6167 17.4798 84.2587 16.6129 83.6179 16.0098C82.9771 15.3879 82.1385 15.0769 81.1019 15.0769Z" fill="#C0C0C0"/>
<path d="M91.1693 27.0913V12.9567H93.7418L94.0245 15.501C94.7972 13.6163 96.2766 12.674 98.4628 12.674C98.7455 12.674 99.0282 12.7023 99.3108 12.7588C99.5935 12.7965 99.8291 12.8625 100.018 12.9567L99.5935 15.614C99.3862 15.5387 99.1507 15.4821 98.8868 15.4444C98.6418 15.3879 98.3026 15.3596 97.8691 15.3596C97.266 15.3596 96.6818 15.5198 96.1164 15.8402C95.5699 16.1417 95.1082 16.6129 94.7312 17.2537C94.3732 17.8756 94.1941 18.6577 94.1941 19.6V27.0913H91.1693Z" fill="#C0C0C0"/>
<path d="M108.452 27.374C107.039 27.374 105.795 27.0819 104.721 26.4977C103.665 25.9135 102.836 25.0748 102.233 23.9817C101.63 22.8698 101.328 21.5506 101.328 20.024C101.328 18.4975 101.62 17.1877 102.205 16.0946C102.808 14.9827 103.628 14.1346 104.664 13.5504C105.719 12.9662 106.926 12.674 108.283 12.674C109.658 12.674 110.827 12.9567 111.788 13.5221C112.749 14.0875 113.484 14.8602 113.993 15.8402C114.502 16.8202 114.756 17.9321 114.756 19.176C114.756 19.534 114.747 19.8638 114.728 20.1654C114.709 20.4669 114.681 20.7213 114.643 20.9287H104.297C104.429 22.2479 104.853 23.2562 105.569 23.9535C106.304 24.6319 107.246 24.9712 108.396 24.9712C109.338 24.9712 110.101 24.7921 110.685 24.434C111.27 24.076 111.731 23.5765 112.071 22.9358L114.474 24.0665C113.984 25.1031 113.201 25.9135 112.127 26.4977C111.072 27.0819 109.847 27.374 108.452 27.374ZM108.226 15.0769C107.189 15.0769 106.332 15.3785 105.654 15.9815C104.994 16.5846 104.57 17.461 104.381 18.6106H111.816C111.741 17.4798 111.383 16.6129 110.742 16.0098C110.101 15.3879 109.263 15.0769 108.226 15.0769Z" fill="#C0C0C0"/>
<path d="M123.325 27.374C122.402 27.374 121.544 27.2044 120.753 26.8652C119.98 26.526 119.358 25.9794 118.887 25.2256C118.416 24.4717 118.18 23.4917 118.18 22.2856V12.9567H121.205V21.5223C121.205 22.8038 121.469 23.6896 121.997 24.1796C122.543 24.6508 123.316 24.8863 124.315 24.8863C124.956 24.8863 125.559 24.745 126.124 24.4623C126.689 24.1608 127.142 23.699 127.481 23.0771C127.839 22.4363 128.018 21.6165 128.018 20.6177V12.9567H131.043V27.0913H128.386L128.244 24.8015C127.754 25.6873 127.095 26.3375 126.265 26.7521C125.436 27.1667 124.456 27.374 123.325 27.374Z" fill="#C0C0C0"/>
<path d="M135.486 27.0913V12.9567H138.171L138.313 15.3313C138.803 14.4267 139.453 13.7577 140.263 13.3242C141.092 12.8908 141.969 12.674 142.892 12.674C143.91 12.674 144.843 12.9096 145.691 13.3808C146.558 13.8331 147.208 14.521 147.642 15.4444C147.943 14.8225 148.358 14.3042 148.885 13.8896C149.413 13.475 149.997 13.1735 150.638 12.985C151.279 12.7777 151.91 12.674 152.532 12.674C153.437 12.674 154.285 12.8625 155.076 13.2394C155.868 13.6163 156.509 14.1912 156.999 14.9638C157.489 15.7365 157.734 16.726 157.734 17.9321V27.0913H154.709V18.4127C154.709 17.2442 154.426 16.415 153.861 15.925C153.314 15.4162 152.626 15.1617 151.797 15.1617C150.817 15.1617 149.96 15.5292 149.225 16.2642C148.49 16.9804 148.122 18.0263 148.122 19.4021V27.0913H145.097V18.4127C145.097 17.2442 144.815 16.415 144.249 15.925C143.703 15.4162 143.015 15.1617 142.186 15.1617C141.62 15.1617 141.055 15.3125 140.489 15.614C139.924 15.9156 139.453 16.3867 139.076 17.0275C138.699 17.6683 138.511 18.5163 138.511 19.5717V27.0913H135.486Z" fill="#C0C0C0"/>
</svg>
