<svg width="133" height="23" viewBox="0 0 133 23" fill="none" xmlns="http://www.w3.org/2000/svg">
<path fill-rule="evenodd" clip-rule="evenodd" d="M0.694702 11.5V22.5525H2.91501H5.13532V18.4182V14.2838L8.43656 14.2223C10.8357 14.1775 11.9614 14.1101 12.5558 13.9756C14.903 13.4446 16.7412 11.6707 17.3517 9.34754C17.6193 8.32889 17.6255 6.27476 17.364 5.2575C16.7714 2.95282 14.9973 1.17962 12.7895 0.685072C12.4219 0.602804 10.0715 0.534442 6.44997 0.500787L0.694702 0.447266V11.5ZM25.1075 0.787674C25.0134 1.03611 16.9853 21.7688 16.7363 22.4065C16.6918 22.5204 17.2025 22.5524 19.0582 22.5522L21.437 22.5518L22.1231 20.6532C22.5005 19.609 22.9118 18.4785 23.0372 18.1411L23.2652 17.5276H27.6291H31.9932L32.5699 19.0176C32.8872 19.837 33.3192 20.9677 33.5301 21.53L33.9135 22.5525H36.3511H38.7886L38.617 22.1143C38.4857 21.7789 30.333 1.29355 30.0597 0.612386C30.0155 0.502189 29.4147 0.466314 27.6151 0.466314H25.2291L25.1075 0.787674ZM36.1028 0.523808C36.1028 0.555476 37.8907 3.42026 40.0759 6.89013L44.0491 13.1988V17.8757V22.5525H46.3279H48.6066V17.8915V13.2306L52.2181 7.50294C54.2043 4.35279 56.018 1.48076 56.2482 1.12084L56.6669 0.466314L54.0683 0.469001L51.4696 0.471689L48.9762 4.79276C47.6049 7.1693 46.4667 9.11383 46.4469 9.11383C46.4272 9.11383 45.2617 7.16919 43.857 4.79241L41.303 0.470988L38.7029 0.468651C37.2728 0.467365 36.1028 0.492139 36.1028 0.523808ZM58.8901 11.5094V22.5525H67.3039H75.7177V20.6828V18.8131H69.5242H63.3307V15.8332V12.8533H68.8815H74.4323V10.9836V9.11383H68.8815H63.3307V6.6598V4.20578H69.2905H75.2503V2.33605V0.466314H67.0702H58.8901V11.5094ZM79.3403 11.5094V22.5525H87.7541H96.1679V20.6828V18.8131H89.9744H83.781V15.8332V12.8533H89.3317H94.8825V10.9836V9.11383H89.3317H83.781V6.6598V4.20578H89.7407H95.7005V2.33605V0.466314H87.5204H79.3403V11.5094ZM99.9074 11.5014V22.5525H102.128H104.348V17.9366V13.3207L105.137 13.3231C106.211 13.3262 107.439 13.5154 107.886 13.7466C108.605 14.1183 109.458 15.2086 111.885 18.856L114.339 22.5443L116.998 22.5484C118.46 22.5507 119.656 22.5217 119.656 22.4838C119.656 22.3594 116.282 16.988 115.615 16.0504C114.791 14.8934 113.963 14.0339 113.01 13.3481L112.265 12.8117L113.169 12.5983C114.982 12.1706 116.594 11.0125 117.253 9.6654C117.726 8.70003 117.901 7.88717 117.901 6.6598C117.901 3.5689 116.27 1.42221 113.405 0.743034C112.711 0.578498 111.626 0.54157 106.247 0.499618L99.9074 0.450187V11.5014ZM10.7486 4.43225C11.4768 4.64587 12.2243 5.20725 12.5748 5.80347C12.8651 6.29743 12.9062 6.48405 12.9044 7.30252C12.9028 8.03254 12.8474 8.33976 12.6516 8.70482C12.3283 9.3077 11.7358 9.87212 11.1847 10.102C10.5844 10.3523 8.91183 10.5117 6.85898 10.5141L5.13532 10.5161V7.34342V4.17072L7.73541 4.24084C9.16553 4.2794 10.5214 4.36552 10.7486 4.43225ZM111.769 4.48145C112.489 4.79521 112.979 5.34141 113.189 6.06371C113.564 7.35102 113.115 8.71148 112.126 9.29145C111.482 9.66867 109.996 9.8103 106.656 9.81311L104.348 9.81498V6.99776V4.18054L107.825 4.22927C110.801 4.27087 111.368 4.30721 111.769 4.48145ZM29.1054 9.81498L30.5769 13.7882H27.6013C25.2699 13.7882 24.6373 13.7565 24.6795 13.6421C24.7092 13.5618 25.355 11.7739 26.1145 9.6689C26.8741 7.56394 27.5267 5.8418 27.5647 5.8418C27.6027 5.8418 28.296 7.62973 29.1054 9.81498ZM124.331 10.5484C123.249 10.9187 122.502 11.3887 121.732 12.1839C120.171 13.7974 119.642 16.1993 120.367 18.3833C121.003 20.3017 122.753 21.9155 124.692 22.3726C127.299 22.9871 129.917 21.9382 131.364 19.6998C132.513 17.9217 132.608 15.4782 131.605 13.4971C131.201 12.6983 129.95 11.4345 129.135 10.9997C127.703 10.2368 125.772 10.0554 124.331 10.5484ZM127.077 11.2165C129.204 11.5642 131.006 13.401 131.34 15.5614C131.496 16.5688 131.328 17.7913 130.912 18.6761C130.499 19.5543 129.279 20.771 128.362 21.2175C127.702 21.5396 127.577 21.5592 126.201 21.5592C124.799 21.5592 124.708 21.544 123.948 21.1842C121.7 20.1194 120.485 17.5066 121.107 15.0736C121.586 13.2006 123.149 11.6824 125.032 11.2632C125.845 11.082 126.205 11.0738 127.077 11.2165ZM123.717 13.0371C123.669 13.086 123.63 14.6159 123.63 16.437V19.7479H124.272H124.915V18.3872V17.0265L125.851 17.1046C127.391 17.2331 127.611 17.4348 127.713 18.8131L127.778 19.6895L128.348 19.7257L128.918 19.762L128.867 18.7819C128.808 17.6601 128.541 17.0873 127.942 16.7971L127.581 16.6224L128.023 16.4031C128.685 16.0743 128.941 15.6532 128.93 14.9114C128.918 14.1016 128.629 13.6206 127.956 13.2903C127.494 13.0641 127.198 13.026 125.616 12.9898C124.62 12.9669 123.765 12.9881 123.717 13.0371ZM127.259 14.0838C127.628 14.2748 127.72 14.4677 127.72 15.0571C127.72 15.9207 127.176 16.2403 125.704 16.2415L124.915 16.2422V14.999V13.756L125.929 13.8383C126.487 13.8835 127.085 13.9941 127.259 14.0838Z" fill="#C0C0C0"/>
</svg>
