<svg width="24" height="25" viewBox="0 0 24 25" fill="none" xmlns="http://www.w3.org/2000/svg">
<path d="M18.71 7.70998C18.617 7.61625 18.5064 7.54186 18.3846 7.49109C18.2627 7.44032 18.132 7.41418 18 7.41418C17.868 7.41418 17.7373 7.44032 17.6154 7.49109C17.4936 7.54186 17.383 7.61625 17.29 7.70998L9.84001 15.17L6.71001 12.03C6.61349 11.9367 6.49955 11.8634 6.37469 11.8142C6.24984 11.765 6.11651 11.7409 5.98233 11.7432C5.84815 11.7455 5.71574 11.7743 5.59266 11.8278C5.46959 11.8812 5.35825 11.9585 5.26501 12.055C5.17177 12.1515 5.09846 12.2654 5.04925 12.3903C5.00005 12.5152 4.97592 12.6485 4.97824 12.7827C4.98056 12.9168 5.00929 13.0493 5.06278 13.1723C5.11628 13.2954 5.19349 13.4067 5.29001 13.5L9.13001 17.34C9.22297 17.4337 9.33358 17.5081 9.45543 17.5589C9.57729 17.6096 9.708 17.6358 9.84001 17.6358C9.97202 17.6358 10.1027 17.6096 10.2246 17.5589C10.3464 17.5081 10.457 17.4337 10.55 17.34L18.71 9.17998C18.8115 9.08634 18.8925 8.97269 18.9479 8.84619C19.0033 8.71969 19.0319 8.58308 19.0319 8.44498C19.0319 8.30688 19.0033 8.17028 18.9479 8.04378C18.8925 7.91728 18.8115 7.80363 18.71 7.70998V7.70998Z" fill="#F56040"/>
</svg>
