<svg width="81" height="100" viewBox="0 0 81 100" fill="none" xmlns="http://www.w3.org/2000/svg">
<path fill-rule="evenodd" clip-rule="evenodd" d="M0.436035 88.4323C3.99936 88.302 7.07803 87.8146 9.67204 86.97C12.8107 85.9713 15.343 84.5803 17.269 82.797C19.195 80.9423 20.693 78.4457 21.763 75.307C22.833 72.1683 23.5464 68.8157 23.903 65.249C24.2597 61.6823 24.438 57.2597 24.438 51.981V47.594C24.438 34.0407 22.5834 24.5533 18.874 19.132C15.4842 14.0804 9.33815 11.3823 0.436035 11.0378V24.3632C4.03474 24.7252 6.47141 26.1201 7.74604 28.548C9.24404 31.4013 10.0287 36.359 10.1 43.421V55.298C10.0287 63.1447 9.31537 68.4233 7.96004 71.134C6.78728 73.4795 4.27928 74.8103 0.436035 75.1262V88.4323ZM54.653 41.281L52.299 53.051C52.5843 53.1937 53.4403 53.586 54.867 54.228C56.365 54.7987 57.328 55.2267 57.756 55.512C58.184 55.726 58.9687 56.154 60.11 56.796C61.3227 57.438 62.143 58.0443 62.571 58.615C62.999 59.1143 63.641 59.9347 64.497 61.076C65.4243 62.2173 65.888 64.0363 65.888 66.533C65.888 68.887 64.9607 71.027 63.106 72.953C61.3227 74.8077 58.933 75.735 55.937 75.735C53.0123 75.735 50.8723 75.1643 49.517 74.023C48.1617 72.8103 47.3057 71.6333 46.949 70.492C46.6637 69.2793 46.521 68.0667 46.521 66.854H32.932C32.932 73.4167 34.7867 78.6597 38.496 82.583C42.2767 86.5063 47.9833 88.468 55.616 88.468C63.2487 88.468 69.1693 86.6133 73.378 82.904C77.658 79.1233 79.798 73.916 79.798 67.282C79.798 58.722 77.0873 52.9083 71.666 49.841C76.374 44.9903 78.728 38.6773 78.728 30.902C78.728 17.634 70.9527 11 55.402 11C47.8407 11 42.1697 12.9617 38.389 16.885C34.6797 20.737 32.825 26.7647 32.825 34.968H45.879C45.879 30.6167 46.521 27.6563 47.805 26.087C49.089 24.5177 51.4787 23.733 54.974 23.733C58.5407 23.733 61.1443 24.589 62.785 26.301C64.497 28.013 65.353 29.5823 65.353 31.009C65.353 36.5017 63.9977 40.96 61.287 44.384L54.653 41.281Z" fill="url(#paint0_linear_164_418)"/>
<rect x="0.436035" width="1" height="100" fill="url(#paint1_radial_164_418)"/>
<defs>
<linearGradient id="paint0_linear_164_418" x1="16.1602" y1="5.30049" x2="107.656" y2="62.5168" gradientUnits="userSpaceOnUse">
<stop stop-color="#9FDDFF"/>
<stop offset="1" stop-color="#C761BC"/>
</linearGradient>
<radialGradient id="paint1_radial_164_418" cx="0" cy="0" r="1" gradientUnits="userSpaceOnUse" gradientTransform="translate(0.454172 90.8302) rotate(-79.1975) scale(7.70474 23.0683)">
<stop stop-color="#FED576"/>
<stop offset="0.2634" stop-color="#F47133"/>
<stop offset="0.6091" stop-color="#BC3081"/>
<stop offset="1" stop-color="#4C63D2"/>
</radialGradient>
</defs>
</svg>
