<svg width="80" height="101" viewBox="0 0 80 101" fill="none" xmlns="http://www.w3.org/2000/svg">
<path d="M1 88.7281C2.56419 88.888 4.23119 88.968 6.001 88.968C10.4237 88.968 14.1687 88.4687 17.236 87.47C20.3747 86.4713 22.907 85.0803 24.833 83.297C26.759 81.4423 28.257 78.9457 29.327 75.807C30.397 72.6683 31.1103 69.3157 31.467 65.749C31.8237 62.1823 32.002 57.7597 32.002 52.481V48.094C32.002 34.5407 30.1473 25.0533 26.438 19.632C22.8 14.2107 15.9877 11.5 6.001 11.5C4.23877 11.5 2.57177 11.5726 1 11.7177V25.4942C2.39466 25.0101 4.06166 24.768 6.001 24.768C10.709 24.768 13.812 26.1947 15.31 29.048C16.808 31.9013 17.5927 36.859 17.664 43.921V55.798C17.5927 63.6447 16.8793 68.9233 15.524 71.634C14.1687 74.3447 11.03 75.7 6.108 75.7C4.12032 75.7 2.41765 75.4732 1 75.0195V88.7281Z" fill="url(#paint0_linear_164_387)"/>
<path d="M54.513 88.326H69.065V24.768C69.065 19.7033 68.3516 16.315 66.925 14.603C65.5696 12.891 62.538 12.035 57.83 12.035H45.204V22.414L54.513 25.838V88.326Z" fill="url(#paint1_linear_164_387)"/>
<rect y="0.5" width="1" height="100" fill="url(#paint2_radial_164_387)"/>
<defs>
<linearGradient id="paint0_linear_164_387" x1="14.4859" y1="5.80049" x2="99.2592" y2="51.2668" gradientUnits="userSpaceOnUse">
<stop stop-color="#9FDDFF"/>
<stop offset="1" stop-color="#C761BC"/>
</linearGradient>
<linearGradient id="paint1_linear_164_387" x1="14.4859" y1="5.80049" x2="99.2592" y2="51.2668" gradientUnits="userSpaceOnUse">
<stop stop-color="#9FDDFF"/>
<stop offset="1" stop-color="#C761BC"/>
</linearGradient>
<radialGradient id="paint2_radial_164_387" cx="0" cy="0" r="1" gradientUnits="userSpaceOnUse" gradientTransform="translate(0.0181367 91.3302) rotate(-79.1975) scale(7.70474 23.0683)">
<stop stop-color="#FED576"/>
<stop offset="0.2634" stop-color="#F47133"/>
<stop offset="0.6091" stop-color="#BC3081"/>
<stop offset="1" stop-color="#4C63D2"/>
</radialGradient>
</defs>
</svg>
