<svg width="86" height="100" viewBox="0 0 86 100" fill="none" xmlns="http://www.w3.org/2000/svg">
<path fill-rule="evenodd" clip-rule="evenodd" d="M0.654053 88.3945C4.21738 88.2642 7.29605 87.7767 9.89005 86.9322C13.0287 85.9335 15.5611 84.5425 17.4871 82.7592C19.4131 80.9045 20.9111 78.4079 21.9811 75.2692C23.0511 72.1305 23.7644 68.7778 24.1211 65.2112C24.4777 61.6445 24.6561 57.2218 24.6561 51.9432V47.5562C24.6561 34.0028 22.8014 24.5155 19.0921 19.0942C15.7022 14.0426 9.55617 11.3445 0.654053 11V24.3253C4.25276 24.6874 6.68942 26.0823 7.96405 28.5102C9.46206 31.3635 10.2467 36.3212 10.3181 43.3832V55.2602C10.2467 63.1068 9.53339 68.3855 8.17805 71.0962C7.00529 73.4417 4.49729 74.7724 0.654053 75.0884V88.3945ZM77.234 71.4172H85.794V58.2562H77.234V11.6042H63.966V58.2562H46.097L57.76 27.1192H42.887C37.323 42.1705 33.9347 51.5152 32.722 55.1532C31.5093 58.7912 30.903 61.3235 30.903 62.7502C30.903 65.4608 31.7947 67.6008 33.578 69.1702C35.4327 70.6682 38.179 71.4172 41.817 71.4172H63.966V87.7882H77.234V71.4172Z" fill="url(#paint0_linear_164_436)"/>
<rect x="0.654053" width="1" height="100" fill="url(#paint1_radial_164_436)"/>
<defs>
<linearGradient id="paint0_linear_164_436" x1="17.523" y1="5.3059" x2="111.63" y2="68.4996" gradientUnits="userSpaceOnUse">
<stop stop-color="#9FDDFF"/>
<stop offset="1" stop-color="#C761BC"/>
</linearGradient>
<radialGradient id="paint1_radial_164_436" cx="0" cy="0" r="1" gradientUnits="userSpaceOnUse" gradientTransform="translate(0.672189 90.8302) rotate(-79.1975) scale(7.70474 23.0683)">
<stop stop-color="#FED576"/>
<stop offset="0.2634" stop-color="#F47133"/>
<stop offset="0.6091" stop-color="#BC3081"/>
<stop offset="1" stop-color="#4C63D2"/>
</radialGradient>
</defs>
</svg>
