<svg width="81" height="100" viewBox="0 0 81 100" fill="none" xmlns="http://www.w3.org/2000/svg">
<path fill-rule="evenodd" clip-rule="evenodd" d="M0.217773 88.4323C3.7811 88.302 6.85977 87.8146 9.45377 86.97C12.5924 85.9713 15.1248 84.5803 17.0508 82.797C18.9768 80.9423 20.4748 78.4457 21.5448 75.307C22.6148 72.1683 23.3281 68.8157 23.6848 65.249C24.0414 61.6823 24.2198 57.2597 24.2198 51.981V47.594C24.2198 34.0407 22.3651 24.5533 18.6558 19.132C15.2659 14.0804 9.11989 11.3823 0.217773 11.0378V24.3632C3.81648 24.7252 6.25314 26.1201 7.52777 28.548C9.02578 31.4013 9.81044 36.359 9.88177 43.421V55.298C9.81044 63.1447 9.09711 68.4233 7.74178 71.134C6.56902 73.4795 4.06101 74.8103 0.217773 75.1262V88.4323ZM42.4507 87.826H78.9377V75.307H49.5127L61.6037 61.29C62.0317 60.7193 63.4584 59.043 65.8837 56.261C68.3091 53.479 70.4134 50.9467 72.1967 48.664C73.9801 46.3813 75.6564 43.3853 77.2257 39.676C78.8664 35.8953 79.6867 32.2573 79.6867 28.762C79.6867 23.0553 77.6537 18.6683 73.5877 15.601C69.5217 12.5337 63.7437 11 56.2537 11C46.1957 11 39.5617 13.3897 36.3517 18.169C34.7111 20.523 33.6054 23.0197 33.0347 25.659C32.4641 28.227 32.1787 31.33 32.1787 34.968H46.1957C46.1957 31.33 46.8377 28.5123 48.1217 26.515C49.4771 24.5177 51.8667 23.519 55.2907 23.519C58.7861 23.519 61.1757 24.375 62.4597 26.087C63.8151 27.7277 64.4927 29.404 64.4927 31.116C64.4927 32.828 63.8864 34.8967 62.6737 37.322C62.1744 38.3207 61.4611 39.4977 60.5337 40.853C59.6064 42.2083 58.1797 44.2413 56.2537 46.952C54.3277 49.5913 51.7241 52.5517 48.4427 55.833L36.9937 68.566C35.4957 70.2067 34.4257 71.4193 33.7837 72.204C32.0004 74.558 31.1087 76.9833 31.1087 79.48C31.1087 82.476 32.2144 84.616 34.4257 85.9C36.6371 87.184 39.3121 87.826 42.4507 87.826Z" fill="url(#paint0_linear_164_400)"/>
<rect x="0.217773" width="1" height="100" fill="url(#paint1_radial_164_400)"/>
<defs>
<linearGradient id="paint0_linear_164_400" x1="15.9631" y1="5.30312" x2="107.489" y2="62.6419" gradientUnits="userSpaceOnUse">
<stop stop-color="#9FDDFF"/>
<stop offset="1" stop-color="#C761BC"/>
</linearGradient>
<radialGradient id="paint1_radial_164_400" cx="0" cy="0" r="1" gradientUnits="userSpaceOnUse" gradientTransform="translate(0.23591 90.8302) rotate(-79.1975) scale(7.70474 23.0683)">
<stop stop-color="#FED576"/>
<stop offset="0.2634" stop-color="#F47133"/>
<stop offset="0.6091" stop-color="#BC3081"/>
<stop offset="1" stop-color="#4C63D2"/>
</radialGradient>
</defs>
</svg>
