<svg width="25" height="25" viewBox="0 0 25 25" fill="none" xmlns="http://www.w3.org/2000/svg">
<path d="M20.5 7.5H19.291C19.4377 7.01378 19.5082 6.50779 19.5 6C19.5 4.07 17.93 2.5 16 2.5C14.378 2.5 13.295 3.982 12.596 5.585C11.907 4.07 10.769 2.5 9 2.5C7.07 2.5 5.5 4.07 5.5 6C5.5 6.596 5.579 7.089 5.709 7.5H4.5C3.397 7.5 2.5 8.397 2.5 9.5V11.5C2.5 12.603 3.397 13.5 4.5 13.5V20.5C4.5 21.603 5.397 22.5 6.5 22.5H18.5C19.603 22.5 20.5 21.603 20.5 20.5V13.5C21.603 13.5 22.5 12.603 22.5 11.5V9.5C22.5 8.397 21.603 7.5 20.5 7.5ZM16 4.5C16.827 4.5 17.5 5.173 17.5 6C17.5 7.5 16.874 7.5 16.5 7.5H14.022C14.533 5.924 15.275 4.5 16 4.5ZM7.5 6C7.5 5.173 8.173 4.5 9 4.5C9.888 4.5 10.714 6.025 11.198 7.5H8.5C8.126 7.5 7.5 7.5 7.5 6ZM4.5 9.5H11.5V11.5H4.5V9.5ZM6.5 20.5V13.5H11.5V20.5H6.5ZM18.5 20.5H13.5V13.5H18.5V20.5ZM13.5 11.5V9.585L13.517 9.5H20.5L20.501 11.5H13.5Z" fill="url(#paint0_linear_336_1478)"/>
<defs>
<linearGradient id="paint0_linear_336_1478" x1="4.68293" y1="4.36797" x2="16.1338" y2="23.4528" gradientUnits="userSpaceOnUse">
<stop stop-color="#833AB4"/>
<stop offset="1" stop-color="#F56040"/>
</linearGradient>
</defs>
</svg>
